<svg xmlns="http://www.w3.org/2000/svg" data-version="0.1" width="1049.469964664311" height="742.0494699646644" viewBox="0 0 1049.469964664311 742.0494699646644" style="overflow: visible;"><svg data-name="defs"><defs><marker id="arrowStartMarker" refX="5" refY="5" markerWidth="10" markerHeight="10" orient="auto"><path d="M9,1 L5,5 9,9" style="fill:none;stroke:#000000;stroke-opacity:1"/></marker><marker id="arrowStopMarker" refX="5" refY="5" markerWidth="10" markerHeight="10" orient="auto"><path d="M1,1 L5,5 1,9" style="fill:none;stroke:#000000;stroke-opacity:1"/></marker><marker id="straightMarker" refX="1" refY="5" markerWidth="2" markerHeight="10" orient="auto"><path d="M1,1 L1,9" style="fill:none;stroke:#000000;stroke-opacity:1"/></marker><pattern id="bighash" patternUnits="userSpaceOnUse" width="20" height="20"><path d="M 10, 0 l 0, 20" stroke-width="2" shape-rendering="auto" stroke="#343434" stroke-linecap="square"/></pattern><pattern id="bighashm45" patternUnits="userSpaceOnUse" width="20" height="20"><path d="M 0,0 l 20,20 M -5,15 l 10,10&#10;M 15,-5 l 10,10" stroke-width="2" shape-rendering="auto" stroke="#343434" stroke-linecap="square"/></pattern><pattern id="bighash45" patternUnits="userSpaceOnUse" width="20" height="20"><path d="M 0,20 l 20,-20 M -5,5 l 10,-10&#10;M 15,25 l 10,-10" stroke-width="2" shape-rendering="auto" stroke="#343434" stroke-linecap="square"/></pattern><pattern id="smallhash" patternUnits="userSpaceOnUse" width="10" height="10"><path d="M 5, 0 l 0, 10" stroke-width="2" shape-rendering="auto" stroke="#343434" stroke-linecap="square"/></pattern><pattern id="smallhashm45" patternUnits="userSpaceOnUse" width="10" height="10"><path d="M 0,0 l 10,10 M -2.5,7.5 l 5,5&#10;M 7.5,-2.5 l 5,5" stroke-width="2" shape-rendering="auto" stroke="#343434" stroke-linecap="square"/></pattern><pattern id="smallhash45" patternUnits="userSpaceOnUse" width="10" height="10"><path d="M 0,10 l 10,-10 M -2.5,2.5 l 5,-5&#10;M 7.5,12.5 l 5,-5" stroke-width="2" shape-rendering="auto" stroke="#343434" stroke-linecap="square"/></pattern><pattern id="waves" patternUnits="userSpaceOnUse" width="20" height="20"><path d="M 0 10 c 2.5 -5 , 7.5 -5 , 10 0&#10;c 2.5 5 , 7.5 5 , 10 0 M -10 10&#10;c 2.5 5 , 7.5 5 , 10 0 M 20 10&#10;c 2.5 -5 , 7.5 -5 , 10 0" fill="transparent" stroke-width="2" shape-rendering="auto" stroke="#343434" stroke-linecap="square"/></pattern><pattern id="smalldots" patternUnits="userSpaceOnUse" width="20" height="20"><circle cx="10" cy="10" r="2" fill="#343434" stroke="#343434" stroke-width="0"/><circle cx="0" cy="0" r="2" fill="#343434" stroke="#343434" stroke-width="0"/><circle cx="0" cy="20" r="2" fill="#343434" stroke="#343434" stroke-width="0"/><circle cx="20" cy="0" r="2" fill="#343434" stroke="#343434" stroke-width="0"/><circle cx="20" cy="20" r="2" fill="#343434" stroke="#343434" stroke-width="0"/></pattern><pattern id="smalldotsline" patternUnits="userSpaceOnUse" width="10" height="10"><rect width="10" height="10" fill="white"/><circle cx="5" cy="5" r="1" fill="#343434" stroke="#343434" stroke-width="1.1"/><circle cx="0" cy="0" r="1" fill="#343434" stroke="#343434" stroke-width="1.1"/><circle cx="0" cy="10" r="1" fill="#343434" stroke="#343434" stroke-width="1.1"/><circle cx="10" cy="0" r="1" fill="#343434" stroke="#343434" stroke-width="1.1"/><circle cx="10" cy="10" r="1" fill="#343434" stroke="#343434" stroke-width="1.1"/></pattern><pattern id="smalldotsthicker" patternUnits="userSpaceOnUse" width="10" height="10"><circle cx="5" cy="5" r="1" fill="#343434" stroke="#343434" stroke-width="1.1"/><circle cx="0" cy="0" r="1" fill="#343434" stroke="#343434" stroke-width="1.1"/><circle cx="0" cy="10" r="1" fill="#343434" stroke="#343434" stroke-width="1.1"/><circle cx="10" cy="0" r="1" fill="#343434" stroke="#343434" stroke-width="1.1"/><circle cx="10" cy="10" r="1" fill="#343434" stroke="#343434" stroke-width="1.1"/></pattern><pattern id="smalldotsthicker2" patternUnits="userSpaceOnUse" width="10" height="10"><circle cx="5" cy="5" r="1" fill="#343434" stroke="#343434" stroke-width="1.3"/><circle cx="0" cy="0" r="1" fill="#343434" stroke="#343434" stroke-width="1.3"/><circle cx="0" cy="10" r="1" fill="#343434" stroke="#343434" stroke-width="1.3"/><circle cx="10" cy="0" r="1" fill="#343434" stroke="#343434" stroke-width="1.3"/><circle cx="10" cy="10" r="1" fill="#343434" stroke="#343434" stroke-width="1.3"/></pattern><pattern id="bigdots" patternUnits="userSpaceOnUse" width="20" height="20"><circle cx="10" cy="10" r="4" fill="grey" stroke="#343434" stroke-width="0"/><circle cx="0" cy="0" r="4" fill="grey" stroke="#343434" stroke-width="0"/><circle cx="0" cy="20" r="4" fill="grey" stroke="#343434" stroke-width="0"/><circle cx="20" cy="0" r="4" fill="grey" stroke="#343434" stroke-width="0"/><circle cx="20" cy="20" r="4" fill="grey" stroke="#343434" stroke-width="0"/></pattern><pattern id="squares45" patternUnits="userSpaceOnUse" width="20" height="20"><path d="M 0,20 l 20,-20 M -5,5 l 10,-10&#10;M 15,25 l 10,-10" stroke-width="1" shape-rendering="auto" stroke="#343434" stroke-linecap="square"/><path d="M 0,0 l 20,20 M -5,15 l 10,10&#10;M 15,-5 l 10,10" stroke-width="1" shape-rendering="auto" stroke="#343434" stroke-linecap="square"/></pattern><pattern id="caps" patternUnits="userSpaceOnUse" width="20" height="20"><path d="M 5,15l5,-10l5,10" fill="transparent" stroke-width="2" shape-rendering="auto" stroke="#343434" stroke-linecap="square"/></pattern><pattern id="woven" patternUnits="userSpaceOnUse" width="20" height="20"><path d="M 5,5l10,10M15,5l10,-10&#10;M5,15l-10,10M15,25l10,-10&#10;M-5,5l10,-10" fill="transparent" stroke-width="2" shape-rendering="auto" stroke="#343434" stroke-linecap="square"/></pattern><pattern id="solid" patternUnits="userSpaceOnUse" width="20" height="20"><path d="M 0,20 l 20,-20 M -5,5 l 10,-10&#10;M 15,25 l 10,-10" stroke-width="0" shape-rendering="auto" stroke="#343434" stroke-linecap="square"/></pattern><pattern id="bighash_white" patternUnits="userSpaceOnUse" width="20" height="20"><rect width="20" height="20" fill="white"/><path d="M 10, 0 l 0, 20" stroke-width="2" shape-rendering="auto" stroke="#343434" stroke-linecap="square"/></pattern><pattern id="bighashm45_white" patternUnits="userSpaceOnUse" width="20" height="20"><rect width="20" height="20" fill="white"/><path d="M 0,0 l 20,20 M -5,15 l 10,10&#10;M 15,-5 l 10,10" stroke-width="2" shape-rendering="auto" stroke="#343434" stroke-linecap="square"/></pattern><pattern id="bighash45_white" patternUnits="userSpaceOnUse" width="20" height="20"><rect width="20" height="20" fill="white"/><path d="M 0,20 l 20,-20 M -5,5 l 10,-10&#10;M 15,25 l 10,-10" stroke-width="2" shape-rendering="auto" stroke="#343434" stroke-linecap="square"/></pattern><pattern id="smallhash_white" patternUnits="userSpaceOnUse" width="10" height="10"><rect width="10" height="10" fill="white"/><path d="M 5, 0 l 0, 10" stroke-width="2" shape-rendering="auto" stroke="#343434" stroke-linecap="square"/></pattern><pattern id="smallhashm45_white" patternUnits="userSpaceOnUse" width="10" height="10"><rect width="10" height="10" fill="white"/><path d="M 0,0 l 10,10 M -2.5,7.5 l 5,5&#10;M 7.5,-2.5 l 5,5" stroke-width="2" shape-rendering="auto" stroke="#343434" stroke-linecap="square"/></pattern><pattern id="smallhash45_white" patternUnits="userSpaceOnUse" width="10" height="10"><rect width="10" height="10" fill="white"/><path d="M 0,10 l 10,-10 M -2.5,2.5 l 5,-5&#10;M 7.5,12.5 l 5,-5" stroke-width="2" shape-rendering="auto" stroke="#343434" stroke-linecap="square"/></pattern><pattern id="waves_white" patternUnits="userSpaceOnUse" width="20" height="20"><rect width="20" height="20" fill="white"/><path d="M 0 10 c 2.5 -5 , 7.5 -5 , 10 0&#10;c 2.5 5 , 7.5 5 , 10 0 M -10 10&#10;c 2.5 5 , 7.5 5 , 10 0 M 20 10&#10;c 2.5 -5 , 7.5 -5 , 10 0" fill="transparent" stroke-width="2" shape-rendering="auto" stroke="#343434" stroke-linecap="square"/></pattern><pattern id="smalldots_white" patternUnits="userSpaceOnUse" width="20" height="20"><rect width="20" height="20" fill="white"/><circle cx="10" cy="10" r="2" fill="#343434" stroke="#343434" stroke-width="0"/><circle cx="0" cy="0" r="2" fill="#343434" stroke="#343434" stroke-width="0"/><circle cx="0" cy="20" r="2" fill="#343434" stroke="#343434" stroke-width="0"/><circle cx="20" cy="0" r="2" fill="#343434" stroke="#343434" stroke-width="0"/><circle cx="20" cy="20" r="2" fill="#343434" stroke="#343434" stroke-width="0"/></pattern><pattern id="smalldotsline_white" patternUnits="userSpaceOnUse" width="10" height="10"><rect width="10" height="10" fill="white"/><circle cx="5" cy="5" r="1" fill="#343434" stroke="#343434" stroke-width="1.1"/><circle cx="0" cy="0" r="1" fill="#343434" stroke="#343434" stroke-width="1.1"/><circle cx="0" cy="10" r="1" fill="#343434" stroke="#343434" stroke-width="1.1"/><circle cx="10" cy="0" r="1" fill="#343434" stroke="#343434" stroke-width="1.1"/><circle cx="10" cy="10" r="1" fill="#343434" stroke="#343434" stroke-width="1.1"/></pattern><pattern id="smalldotsthicker_white" patternUnits="userSpaceOnUse" width="10" height="10"><rect width="10" height="10" fill="white"/><circle cx="5" cy="5" r="1" fill="#343434" stroke="#343434" stroke-width="1.1"/><circle cx="0" cy="0" r="1" fill="#343434" stroke="#343434" stroke-width="1.1"/><circle cx="0" cy="10" r="1" fill="#343434" stroke="#343434" stroke-width="1.1"/><circle cx="10" cy="0" r="1" fill="#343434" stroke="#343434" stroke-width="1.1"/><circle cx="10" cy="10" r="1" fill="#343434" stroke="#343434" stroke-width="1.1"/></pattern><pattern id="smalldotsthicker2_white" patternUnits="userSpaceOnUse" width="10" height="10"><rect width="10" height="10" fill="white"/><circle cx="5" cy="5" r="1" fill="#343434" stroke="#343434" stroke-width="1.3"/><circle cx="0" cy="0" r="1" fill="#343434" stroke="#343434" stroke-width="1.3"/><circle cx="0" cy="10" r="1" fill="#343434" stroke="#343434" stroke-width="1.3"/><circle cx="10" cy="0" r="1" fill="#343434" stroke="#343434" stroke-width="1.3"/><circle cx="10" cy="10" r="1" fill="#343434" stroke="#343434" stroke-width="1.3"/></pattern><pattern id="bigdots_white" patternUnits="userSpaceOnUse" width="20" height="20"><rect width="20" height="20" fill="white"/><circle cx="10" cy="10" r="4" fill="grey" stroke="#343434" stroke-width="0"/><circle cx="0" cy="0" r="4" fill="grey" stroke="#343434" stroke-width="0"/><circle cx="0" cy="20" r="4" fill="grey" stroke="#343434" stroke-width="0"/><circle cx="20" cy="0" r="4" fill="grey" stroke="#343434" stroke-width="0"/><circle cx="20" cy="20" r="4" fill="grey" stroke="#343434" stroke-width="0"/></pattern><pattern id="squares45_white" patternUnits="userSpaceOnUse" width="20" height="20"><rect width="20" height="20" fill="white"/><path d="M 0,20 l 20,-20 M -5,5 l 10,-10&#10;M 15,25 l 10,-10" stroke-width="1" shape-rendering="auto" stroke="#343434" stroke-linecap="square"/><path d="M 0,0 l 20,20 M -5,15 l 10,10&#10;M 15,-5 l 10,10" stroke-width="1" shape-rendering="auto" stroke="#343434" stroke-linecap="square"/></pattern><pattern id="caps_white" patternUnits="userSpaceOnUse" width="20" height="20"><rect width="20" height="20" fill="white"/><path d="M 5,15l5,-10l5,10" fill="transparent" stroke-width="2" shape-rendering="auto" stroke="#343434" stroke-linecap="square"/></pattern><pattern id="woven_white" patternUnits="userSpaceOnUse" width="20" height="20"><rect width="20" height="20" fill="white"/><path d="M 5,5l10,10M15,5l10,-10&#10;M5,15l-10,10M15,25l10,-10&#10;M-5,5l10,-10" fill="transparent" stroke-width="2" shape-rendering="auto" stroke="#343434" stroke-linecap="square"/></pattern><pattern id="solid_white" patternUnits="userSpaceOnUse" width="20" height="20"><rect width="20" height="20" fill="white"/><path d="M 0,20 l 20,-20 M -5,5 l 10,-10&#10;M 15,25 l 10,-10" stroke-width="0" shape-rendering="auto" stroke="#343434" stroke-linecap="square"/></pattern><pattern id="bighash_blue" patternUnits="userSpaceOnUse" width="20" height="20"><rect width="20" height="20" fill="blue"/><path d="M 10, 0 l 0, 20" stroke-width="2" shape-rendering="auto" stroke="#343434" stroke-linecap="square"/></pattern><pattern id="bighashm45_blue" patternUnits="userSpaceOnUse" width="20" height="20"><rect width="20" height="20" fill="blue"/><path d="M 0,0 l 20,20 M -5,15 l 10,10&#10;M 15,-5 l 10,10" stroke-width="2" shape-rendering="auto" stroke="#343434" stroke-linecap="square"/></pattern><pattern id="bighash45_blue" patternUnits="userSpaceOnUse" width="20" height="20"><rect width="20" height="20" fill="blue"/><path d="M 0,20 l 20,-20 M -5,5 l 10,-10&#10;M 15,25 l 10,-10" stroke-width="2" shape-rendering="auto" stroke="#343434" stroke-linecap="square"/></pattern><pattern id="smallhash_blue" patternUnits="userSpaceOnUse" width="10" height="10"><rect width="10" height="10" fill="blue"/><path d="M 5, 0 l 0, 10" stroke-width="2" shape-rendering="auto" stroke="#343434" stroke-linecap="square"/></pattern><pattern id="smallhashm45_blue" patternUnits="userSpaceOnUse" width="10" height="10"><rect width="10" height="10" fill="blue"/><path d="M 0,0 l 10,10 M -2.5,7.5 l 5,5&#10;M 7.5,-2.5 l 5,5" stroke-width="2" shape-rendering="auto" stroke="#343434" stroke-linecap="square"/></pattern><pattern id="smallhash45_blue" patternUnits="userSpaceOnUse" width="10" height="10"><rect width="10" height="10" fill="blue"/><path d="M 0,10 l 10,-10 M -2.5,2.5 l 5,-5&#10;M 7.5,12.5 l 5,-5" stroke-width="2" shape-rendering="auto" stroke="#343434" stroke-linecap="square"/></pattern><pattern id="waves_blue" patternUnits="userSpaceOnUse" width="20" height="20"><rect width="20" height="20" fill="blue"/><path d="M 0 10 c 2.5 -5 , 7.5 -5 , 10 0&#10;c 2.5 5 , 7.5 5 , 10 0 M -10 10&#10;c 2.5 5 , 7.5 5 , 10 0 M 20 10&#10;c 2.5 -5 , 7.5 -5 , 10 0" fill="transparent" stroke-width="2" shape-rendering="auto" stroke="#343434" stroke-linecap="square"/></pattern><pattern id="smalldots_blue" patternUnits="userSpaceOnUse" width="20" height="20"><rect width="20" height="20" fill="blue"/><circle cx="10" cy="10" r="2" fill="#343434" stroke="#343434" stroke-width="0"/><circle cx="0" cy="0" r="2" fill="#343434" stroke="#343434" stroke-width="0"/><circle cx="0" cy="20" r="2" fill="#343434" stroke="#343434" stroke-width="0"/><circle cx="20" cy="0" r="2" fill="#343434" stroke="#343434" stroke-width="0"/><circle cx="20" cy="20" r="2" fill="#343434" stroke="#343434" stroke-width="0"/></pattern><pattern id="smalldotsline_blue" patternUnits="userSpaceOnUse" width="10" height="10"><rect width="10" height="10" fill="blue"/><circle cx="5" cy="5" r="1" fill="#343434" stroke="#343434" stroke-width="1.1"/><circle cx="0" cy="0" r="1" fill="#343434" stroke="#343434" stroke-width="1.1"/><circle cx="0" cy="10" r="1" fill="#343434" stroke="#343434" stroke-width="1.1"/><circle cx="10" cy="0" r="1" fill="#343434" stroke="#343434" stroke-width="1.1"/><circle cx="10" cy="10" r="1" fill="#343434" stroke="#343434" stroke-width="1.1"/></pattern><pattern id="smalldotsthicker_blue" patternUnits="userSpaceOnUse" width="10" height="10"><rect width="10" height="10" fill="blue"/><circle cx="5" cy="5" r="1" fill="#343434" stroke="#343434" stroke-width="1.1"/><circle cx="0" cy="0" r="1" fill="#343434" stroke="#343434" stroke-width="1.1"/><circle cx="0" cy="10" r="1" fill="#343434" stroke="#343434" stroke-width="1.1"/><circle cx="10" cy="0" r="1" fill="#343434" stroke="#343434" stroke-width="1.1"/><circle cx="10" cy="10" r="1" fill="#343434" stroke="#343434" stroke-width="1.1"/></pattern><pattern id="smalldotsthicker2_blue" patternUnits="userSpaceOnUse" width="10" height="10"><rect width="10" height="10" fill="blue"/><circle cx="5" cy="5" r="1" fill="#343434" stroke="#343434" stroke-width="1.3"/><circle cx="0" cy="0" r="1" fill="#343434" stroke="#343434" stroke-width="1.3"/><circle cx="0" cy="10" r="1" fill="#343434" stroke="#343434" stroke-width="1.3"/><circle cx="10" cy="0" r="1" fill="#343434" stroke="#343434" stroke-width="1.3"/><circle cx="10" cy="10" r="1" fill="#343434" stroke="#343434" stroke-width="1.3"/></pattern><pattern id="bigdots_blue" patternUnits="userSpaceOnUse" width="20" height="20"><rect width="20" height="20" fill="blue"/><circle cx="10" cy="10" r="4" fill="grey" stroke="#343434" stroke-width="0"/><circle cx="0" cy="0" r="4" fill="grey" stroke="#343434" stroke-width="0"/><circle cx="0" cy="20" r="4" fill="grey" stroke="#343434" stroke-width="0"/><circle cx="20" cy="0" r="4" fill="grey" stroke="#343434" stroke-width="0"/><circle cx="20" cy="20" r="4" fill="grey" stroke="#343434" stroke-width="0"/></pattern><pattern id="squares45_blue" patternUnits="userSpaceOnUse" width="20" height="20"><rect width="20" height="20" fill="blue"/><path d="M 0,20 l 20,-20 M -5,5 l 10,-10&#10;M 15,25 l 10,-10" stroke-width="1" shape-rendering="auto" stroke="#343434" stroke-linecap="square"/><path d="M 0,0 l 20,20 M -5,15 l 10,10&#10;M 15,-5 l 10,10" stroke-width="1" shape-rendering="auto" stroke="#343434" stroke-linecap="square"/></pattern><pattern id="caps_blue" patternUnits="userSpaceOnUse" width="20" height="20"><rect width="20" height="20" fill="blue"/><path d="M 5,15l5,-10l5,10" fill="transparent" stroke-width="2" shape-rendering="auto" stroke="#343434" stroke-linecap="square"/></pattern><pattern id="woven_blue" patternUnits="userSpaceOnUse" width="20" height="20"><rect width="20" height="20" fill="blue"/><path d="M 5,5l10,10M15,5l10,-10&#10;M5,15l-10,10M15,25l10,-10&#10;M-5,5l10,-10" fill="transparent" stroke-width="2" shape-rendering="auto" stroke="#343434" stroke-linecap="square"/></pattern><pattern id="solid_blue" patternUnits="userSpaceOnUse" width="20" height="20"><rect width="20" height="20" fill="blue"/><path d="M 0,20 l 20,-20 M -5,5 l 10,-10&#10;M 15,25 l 10,-10" stroke-width="0" shape-rendering="auto" stroke="#343434" stroke-linecap="square"/></pattern><pattern id="bighash_cyan" patternUnits="userSpaceOnUse" width="20" height="20"><rect width="20" height="20" fill="cyan"/><path d="M 10, 0 l 0, 20" stroke-width="2" shape-rendering="auto" stroke="#343434" stroke-linecap="square"/></pattern><pattern id="bighashm45_cyan" patternUnits="userSpaceOnUse" width="20" height="20"><rect width="20" height="20" fill="cyan"/><path d="M 0,0 l 20,20 M -5,15 l 10,10&#10;M 15,-5 l 10,10" stroke-width="2" shape-rendering="auto" stroke="#343434" stroke-linecap="square"/></pattern><pattern id="bighash45_cyan" patternUnits="userSpaceOnUse" width="20" height="20"><rect width="20" height="20" fill="cyan"/><path d="M 0,20 l 20,-20 M -5,5 l 10,-10&#10;M 15,25 l 10,-10" stroke-width="2" shape-rendering="auto" stroke="#343434" stroke-linecap="square"/></pattern><pattern id="smallhash_cyan" patternUnits="userSpaceOnUse" width="10" height="10"><rect width="10" height="10" fill="cyan"/><path d="M 5, 0 l 0, 10" stroke-width="2" shape-rendering="auto" stroke="#343434" stroke-linecap="square"/></pattern><pattern id="smallhashm45_cyan" patternUnits="userSpaceOnUse" width="10" height="10"><rect width="10" height="10" fill="cyan"/><path d="M 0,0 l 10,10 M -2.5,7.5 l 5,5&#10;M 7.5,-2.5 l 5,5" stroke-width="2" shape-rendering="auto" stroke="#343434" stroke-linecap="square"/></pattern><pattern id="smallhash45_cyan" patternUnits="userSpaceOnUse" width="10" height="10"><rect width="10" height="10" fill="cyan"/><path d="M 0,10 l 10,-10 M -2.5,2.5 l 5,-5&#10;M 7.5,12.5 l 5,-5" stroke-width="2" shape-rendering="auto" stroke="#343434" stroke-linecap="square"/></pattern><pattern id="waves_cyan" patternUnits="userSpaceOnUse" width="20" height="20"><rect width="20" height="20" fill="cyan"/><path d="M 0 10 c 2.5 -5 , 7.5 -5 , 10 0&#10;c 2.5 5 , 7.5 5 , 10 0 M -10 10&#10;c 2.5 5 , 7.5 5 , 10 0 M 20 10&#10;c 2.5 -5 , 7.5 -5 , 10 0" fill="transparent" stroke-width="2" shape-rendering="auto" stroke="#343434" stroke-linecap="square"/></pattern><pattern id="smalldots_cyan" patternUnits="userSpaceOnUse" width="20" height="20"><rect width="20" height="20" fill="cyan"/><circle cx="10" cy="10" r="2" fill="#343434" stroke="#343434" stroke-width="0"/><circle cx="0" cy="0" r="2" fill="#343434" stroke="#343434" stroke-width="0"/><circle cx="0" cy="20" r="2" fill="#343434" stroke="#343434" stroke-width="0"/><circle cx="20" cy="0" r="2" fill="#343434" stroke="#343434" stroke-width="0"/><circle cx="20" cy="20" r="2" fill="#343434" stroke="#343434" stroke-width="0"/></pattern><pattern id="smalldotsline_cyan" patternUnits="userSpaceOnUse" width="10" height="10"><rect width="10" height="10" fill="cyan"/><circle cx="5" cy="5" r="1" fill="#343434" stroke="#343434" stroke-width="1.1"/><circle cx="0" cy="0" r="1" fill="#343434" stroke="#343434" stroke-width="1.1"/><circle cx="0" cy="10" r="1" fill="#343434" stroke="#343434" stroke-width="1.1"/><circle cx="10" cy="0" r="1" fill="#343434" stroke="#343434" stroke-width="1.1"/><circle cx="10" cy="10" r="1" fill="#343434" stroke="#343434" stroke-width="1.1"/></pattern><pattern id="smalldotsthicker_cyan" patternUnits="userSpaceOnUse" width="10" height="10"><rect width="10" height="10" fill="cyan"/><circle cx="5" cy="5" r="1" fill="#343434" stroke="#343434" stroke-width="1.1"/><circle cx="0" cy="0" r="1" fill="#343434" stroke="#343434" stroke-width="1.1"/><circle cx="0" cy="10" r="1" fill="#343434" stroke="#343434" stroke-width="1.1"/><circle cx="10" cy="0" r="1" fill="#343434" stroke="#343434" stroke-width="1.1"/><circle cx="10" cy="10" r="1" fill="#343434" stroke="#343434" stroke-width="1.1"/></pattern><pattern id="smalldotsthicker2_cyan" patternUnits="userSpaceOnUse" width="10" height="10"><rect width="10" height="10" fill="cyan"/><circle cx="5" cy="5" r="1" fill="#343434" stroke="#343434" stroke-width="1.3"/><circle cx="0" cy="0" r="1" fill="#343434" stroke="#343434" stroke-width="1.3"/><circle cx="0" cy="10" r="1" fill="#343434" stroke="#343434" stroke-width="1.3"/><circle cx="10" cy="0" r="1" fill="#343434" stroke="#343434" stroke-width="1.3"/><circle cx="10" cy="10" r="1" fill="#343434" stroke="#343434" stroke-width="1.3"/></pattern><pattern id="bigdots_cyan" patternUnits="userSpaceOnUse" width="20" height="20"><rect width="20" height="20" fill="cyan"/><circle cx="10" cy="10" r="4" fill="grey" stroke="#343434" stroke-width="0"/><circle cx="0" cy="0" r="4" fill="grey" stroke="#343434" stroke-width="0"/><circle cx="0" cy="20" r="4" fill="grey" stroke="#343434" stroke-width="0"/><circle cx="20" cy="0" r="4" fill="grey" stroke="#343434" stroke-width="0"/><circle cx="20" cy="20" r="4" fill="grey" stroke="#343434" stroke-width="0"/></pattern><pattern id="squares45_cyan" patternUnits="userSpaceOnUse" width="20" height="20"><rect width="20" height="20" fill="cyan"/><path d="M 0,20 l 20,-20 M -5,5 l 10,-10&#10;M 15,25 l 10,-10" stroke-width="1" shape-rendering="auto" stroke="#343434" stroke-linecap="square"/><path d="M 0,0 l 20,20 M -5,15 l 10,10&#10;M 15,-5 l 10,10" stroke-width="1" shape-rendering="auto" stroke="#343434" stroke-linecap="square"/></pattern><pattern id="caps_cyan" patternUnits="userSpaceOnUse" width="20" height="20"><rect width="20" height="20" fill="cyan"/><path d="M 5,15l5,-10l5,10" fill="transparent" stroke-width="2" shape-rendering="auto" stroke="#343434" stroke-linecap="square"/></pattern><pattern id="woven_cyan" patternUnits="userSpaceOnUse" width="20" height="20"><rect width="20" height="20" fill="cyan"/><path d="M 5,5l10,10M15,5l10,-10&#10;M5,15l-10,10M15,25l10,-10&#10;M-5,5l10,-10" fill="transparent" stroke-width="2" shape-rendering="auto" stroke="#343434" stroke-linecap="square"/></pattern><pattern id="solid_cyan" patternUnits="userSpaceOnUse" width="20" height="20"><rect width="20" height="20" fill="cyan"/><path d="M 0,20 l 20,-20 M -5,5 l 10,-10&#10;M 15,25 l 10,-10" stroke-width="0" shape-rendering="auto" stroke="#343434" stroke-linecap="square"/></pattern><pattern id="bighash_red" patternUnits="userSpaceOnUse" width="20" height="20"><rect width="20" height="20" fill="red"/><path d="M 10, 0 l 0, 20" stroke-width="2" shape-rendering="auto" stroke="#343434" stroke-linecap="square"/></pattern><pattern id="bighashm45_red" patternUnits="userSpaceOnUse" width="20" height="20"><rect width="20" height="20" fill="red"/><path d="M 0,0 l 20,20 M -5,15 l 10,10&#10;M 15,-5 l 10,10" stroke-width="2" shape-rendering="auto" stroke="#343434" stroke-linecap="square"/></pattern><pattern id="bighash45_red" patternUnits="userSpaceOnUse" width="20" height="20"><rect width="20" height="20" fill="red"/><path d="M 0,20 l 20,-20 M -5,5 l 10,-10&#10;M 15,25 l 10,-10" stroke-width="2" shape-rendering="auto" stroke="#343434" stroke-linecap="square"/></pattern><pattern id="smallhash_red" patternUnits="userSpaceOnUse" width="10" height="10"><rect width="10" height="10" fill="red"/><path d="M 5, 0 l 0, 10" stroke-width="2" shape-rendering="auto" stroke="#343434" stroke-linecap="square"/></pattern><pattern id="smallhashm45_red" patternUnits="userSpaceOnUse" width="10" height="10"><rect width="10" height="10" fill="red"/><path d="M 0,0 l 10,10 M -2.5,7.5 l 5,5&#10;M 7.5,-2.5 l 5,5" stroke-width="2" shape-rendering="auto" stroke="#343434" stroke-linecap="square"/></pattern><pattern id="smallhash45_red" patternUnits="userSpaceOnUse" width="10" height="10"><rect width="10" height="10" fill="red"/><path d="M 0,10 l 10,-10 M -2.5,2.5 l 5,-5&#10;M 7.5,12.5 l 5,-5" stroke-width="2" shape-rendering="auto" stroke="#343434" stroke-linecap="square"/></pattern><pattern id="waves_red" patternUnits="userSpaceOnUse" width="20" height="20"><rect width="20" height="20" fill="red"/><path d="M 0 10 c 2.5 -5 , 7.5 -5 , 10 0&#10;c 2.5 5 , 7.5 5 , 10 0 M -10 10&#10;c 2.5 5 , 7.5 5 , 10 0 M 20 10&#10;c 2.5 -5 , 7.5 -5 , 10 0" fill="transparent" stroke-width="2" shape-rendering="auto" stroke="#343434" stroke-linecap="square"/></pattern><pattern id="smalldots_red" patternUnits="userSpaceOnUse" width="20" height="20"><rect width="20" height="20" fill="red"/><circle cx="10" cy="10" r="2" fill="#343434" stroke="#343434" stroke-width="0"/><circle cx="0" cy="0" r="2" fill="#343434" stroke="#343434" stroke-width="0"/><circle cx="0" cy="20" r="2" fill="#343434" stroke="#343434" stroke-width="0"/><circle cx="20" cy="0" r="2" fill="#343434" stroke="#343434" stroke-width="0"/><circle cx="20" cy="20" r="2" fill="#343434" stroke="#343434" stroke-width="0"/></pattern><pattern id="smalldotsline_red" patternUnits="userSpaceOnUse" width="10" height="10"><rect width="10" height="10" fill="red"/><circle cx="5" cy="5" r="1" fill="#343434" stroke="#343434" stroke-width="1.1"/><circle cx="0" cy="0" r="1" fill="#343434" stroke="#343434" stroke-width="1.1"/><circle cx="0" cy="10" r="1" fill="#343434" stroke="#343434" stroke-width="1.1"/><circle cx="10" cy="0" r="1" fill="#343434" stroke="#343434" stroke-width="1.1"/><circle cx="10" cy="10" r="1" fill="#343434" stroke="#343434" stroke-width="1.1"/></pattern><pattern id="smalldotsthicker_red" patternUnits="userSpaceOnUse" width="10" height="10"><rect width="10" height="10" fill="red"/><circle cx="5" cy="5" r="1" fill="#343434" stroke="#343434" stroke-width="1.1"/><circle cx="0" cy="0" r="1" fill="#343434" stroke="#343434" stroke-width="1.1"/><circle cx="0" cy="10" r="1" fill="#343434" stroke="#343434" stroke-width="1.1"/><circle cx="10" cy="0" r="1" fill="#343434" stroke="#343434" stroke-width="1.1"/><circle cx="10" cy="10" r="1" fill="#343434" stroke="#343434" stroke-width="1.1"/></pattern><pattern id="smalldotsthicker2_red" patternUnits="userSpaceOnUse" width="10" height="10"><rect width="10" height="10" fill="red"/><circle cx="5" cy="5" r="1" fill="#343434" stroke="#343434" stroke-width="1.3"/><circle cx="0" cy="0" r="1" fill="#343434" stroke="#343434" stroke-width="1.3"/><circle cx="0" cy="10" r="1" fill="#343434" stroke="#343434" stroke-width="1.3"/><circle cx="10" cy="0" r="1" fill="#343434" stroke="#343434" stroke-width="1.3"/><circle cx="10" cy="10" r="1" fill="#343434" stroke="#343434" stroke-width="1.3"/></pattern><pattern id="bigdots_red" patternUnits="userSpaceOnUse" width="20" height="20"><rect width="20" height="20" fill="red"/><circle cx="10" cy="10" r="4" fill="grey" stroke="#343434" stroke-width="0"/><circle cx="0" cy="0" r="4" fill="grey" stroke="#343434" stroke-width="0"/><circle cx="0" cy="20" r="4" fill="grey" stroke="#343434" stroke-width="0"/><circle cx="20" cy="0" r="4" fill="grey" stroke="#343434" stroke-width="0"/><circle cx="20" cy="20" r="4" fill="grey" stroke="#343434" stroke-width="0"/></pattern><pattern id="squares45_red" patternUnits="userSpaceOnUse" width="20" height="20"><rect width="20" height="20" fill="red"/><path d="M 0,20 l 20,-20 M -5,5 l 10,-10&#10;M 15,25 l 10,-10" stroke-width="1" shape-rendering="auto" stroke="#343434" stroke-linecap="square"/><path d="M 0,0 l 20,20 M -5,15 l 10,10&#10;M 15,-5 l 10,10" stroke-width="1" shape-rendering="auto" stroke="#343434" stroke-linecap="square"/></pattern><pattern id="caps_red" patternUnits="userSpaceOnUse" width="20" height="20"><rect width="20" height="20" fill="red"/><path d="M 5,15l5,-10l5,10" fill="transparent" stroke-width="2" shape-rendering="auto" stroke="#343434" stroke-linecap="square"/></pattern><pattern id="woven_red" patternUnits="userSpaceOnUse" width="20" height="20"><rect width="20" height="20" fill="red"/><path d="M 5,5l10,10M15,5l10,-10&#10;M5,15l-10,10M15,25l10,-10&#10;M-5,5l10,-10" fill="transparent" stroke-width="2" shape-rendering="auto" stroke="#343434" stroke-linecap="square"/></pattern><pattern id="solid_red" patternUnits="userSpaceOnUse" width="20" height="20"><rect width="20" height="20" fill="red"/><path d="M 0,20 l 20,-20 M -5,5 l 10,-10&#10;M 15,25 l 10,-10" stroke-width="0" shape-rendering="auto" stroke="#343434" stroke-linecap="square"/></pattern><pattern id="bighash_yellow" patternUnits="userSpaceOnUse" width="20" height="20"><rect width="20" height="20" fill="yellow"/><path d="M 10, 0 l 0, 20" stroke-width="2" shape-rendering="auto" stroke="#343434" stroke-linecap="square"/></pattern><pattern id="bighashm45_yellow" patternUnits="userSpaceOnUse" width="20" height="20"><rect width="20" height="20" fill="yellow"/><path d="M 0,0 l 20,20 M -5,15 l 10,10&#10;M 15,-5 l 10,10" stroke-width="2" shape-rendering="auto" stroke="#343434" stroke-linecap="square"/></pattern><pattern id="bighash45_yellow" patternUnits="userSpaceOnUse" width="20" height="20"><rect width="20" height="20" fill="yellow"/><path d="M 0,20 l 20,-20 M -5,5 l 10,-10&#10;M 15,25 l 10,-10" stroke-width="2" shape-rendering="auto" stroke="#343434" stroke-linecap="square"/></pattern><pattern id="smallhash_yellow" patternUnits="userSpaceOnUse" width="10" height="10"><rect width="10" height="10" fill="yellow"/><path d="M 5, 0 l 0, 10" stroke-width="2" shape-rendering="auto" stroke="#343434" stroke-linecap="square"/></pattern><pattern id="smallhashm45_yellow" patternUnits="userSpaceOnUse" width="10" height="10"><rect width="10" height="10" fill="yellow"/><path d="M 0,0 l 10,10 M -2.5,7.5 l 5,5&#10;M 7.5,-2.5 l 5,5" stroke-width="2" shape-rendering="auto" stroke="#343434" stroke-linecap="square"/></pattern><pattern id="smallhash45_yellow" patternUnits="userSpaceOnUse" width="10" height="10"><rect width="10" height="10" fill="yellow"/><path d="M 0,10 l 10,-10 M -2.5,2.5 l 5,-5&#10;M 7.5,12.5 l 5,-5" stroke-width="2" shape-rendering="auto" stroke="#343434" stroke-linecap="square"/></pattern><pattern id="waves_yellow" patternUnits="userSpaceOnUse" width="20" height="20"><rect width="20" height="20" fill="yellow"/><path d="M 0 10 c 2.5 -5 , 7.5 -5 , 10 0&#10;c 2.5 5 , 7.5 5 , 10 0 M -10 10&#10;c 2.5 5 , 7.5 5 , 10 0 M 20 10&#10;c 2.5 -5 , 7.5 -5 , 10 0" fill="transparent" stroke-width="2" shape-rendering="auto" stroke="#343434" stroke-linecap="square"/></pattern><pattern id="smalldots_yellow" patternUnits="userSpaceOnUse" width="20" height="20"><rect width="20" height="20" fill="yellow"/><circle cx="10" cy="10" r="2" fill="#343434" stroke="#343434" stroke-width="0"/><circle cx="0" cy="0" r="2" fill="#343434" stroke="#343434" stroke-width="0"/><circle cx="0" cy="20" r="2" fill="#343434" stroke="#343434" stroke-width="0"/><circle cx="20" cy="0" r="2" fill="#343434" stroke="#343434" stroke-width="0"/><circle cx="20" cy="20" r="2" fill="#343434" stroke="#343434" stroke-width="0"/></pattern><pattern id="smalldotsline_yellow" patternUnits="userSpaceOnUse" width="10" height="10"><rect width="10" height="10" fill="yellow"/><circle cx="5" cy="5" r="1" fill="#343434" stroke="#343434" stroke-width="1.1"/><circle cx="0" cy="0" r="1" fill="#343434" stroke="#343434" stroke-width="1.1"/><circle cx="0" cy="10" r="1" fill="#343434" stroke="#343434" stroke-width="1.1"/><circle cx="10" cy="0" r="1" fill="#343434" stroke="#343434" stroke-width="1.1"/><circle cx="10" cy="10" r="1" fill="#343434" stroke="#343434" stroke-width="1.1"/></pattern><pattern id="smalldotsthicker_yellow" patternUnits="userSpaceOnUse" width="10" height="10"><rect width="10" height="10" fill="yellow"/><circle cx="5" cy="5" r="1" fill="#343434" stroke="#343434" stroke-width="1.1"/><circle cx="0" cy="0" r="1" fill="#343434" stroke="#343434" stroke-width="1.1"/><circle cx="0" cy="10" r="1" fill="#343434" stroke="#343434" stroke-width="1.1"/><circle cx="10" cy="0" r="1" fill="#343434" stroke="#343434" stroke-width="1.1"/><circle cx="10" cy="10" r="1" fill="#343434" stroke="#343434" stroke-width="1.1"/></pattern><pattern id="smalldotsthicker2_yellow" patternUnits="userSpaceOnUse" width="10" height="10"><rect width="10" height="10" fill="yellow"/><circle cx="5" cy="5" r="1" fill="#343434" stroke="#343434" stroke-width="1.3"/><circle cx="0" cy="0" r="1" fill="#343434" stroke="#343434" stroke-width="1.3"/><circle cx="0" cy="10" r="1" fill="#343434" stroke="#343434" stroke-width="1.3"/><circle cx="10" cy="0" r="1" fill="#343434" stroke="#343434" stroke-width="1.3"/><circle cx="10" cy="10" r="1" fill="#343434" stroke="#343434" stroke-width="1.3"/></pattern><pattern id="bigdots_yellow" patternUnits="userSpaceOnUse" width="20" height="20"><rect width="20" height="20" fill="yellow"/><circle cx="10" cy="10" r="4" fill="grey" stroke="#343434" stroke-width="0"/><circle cx="0" cy="0" r="4" fill="grey" stroke="#343434" stroke-width="0"/><circle cx="0" cy="20" r="4" fill="grey" stroke="#343434" stroke-width="0"/><circle cx="20" cy="0" r="4" fill="grey" stroke="#343434" stroke-width="0"/><circle cx="20" cy="20" r="4" fill="grey" stroke="#343434" stroke-width="0"/></pattern><pattern id="squares45_yellow" patternUnits="userSpaceOnUse" width="20" height="20"><rect width="20" height="20" fill="yellow"/><path d="M 0,20 l 20,-20 M -5,5 l 10,-10&#10;M 15,25 l 10,-10" stroke-width="1" shape-rendering="auto" stroke="#343434" stroke-linecap="square"/><path d="M 0,0 l 20,20 M -5,15 l 10,10&#10;M 15,-5 l 10,10" stroke-width="1" shape-rendering="auto" stroke="#343434" stroke-linecap="square"/></pattern><pattern id="caps_yellow" patternUnits="userSpaceOnUse" width="20" height="20"><rect width="20" height="20" fill="yellow"/><path d="M 5,15l5,-10l5,10" fill="transparent" stroke-width="2" shape-rendering="auto" stroke="#343434" stroke-linecap="square"/></pattern><pattern id="woven_yellow" patternUnits="userSpaceOnUse" width="20" height="20"><rect width="20" height="20" fill="yellow"/><path d="M 5,5l10,10M15,5l10,-10&#10;M5,15l-10,10M15,25l10,-10&#10;M-5,5l10,-10" fill="transparent" stroke-width="2" shape-rendering="auto" stroke="#343434" stroke-linecap="square"/></pattern><pattern id="solid_yellow" patternUnits="userSpaceOnUse" width="20" height="20"><rect width="20" height="20" fill="yellow"/><path d="M 0,20 l 20,-20 M -5,5 l 10,-10&#10;M 15,25 l 10,-10" stroke-width="0" shape-rendering="auto" stroke="#343434" stroke-linecap="square"/></pattern><pattern id="bighash_limegreen" patternUnits="userSpaceOnUse" width="20" height="20"><rect width="20" height="20" fill="limegreen"/><path d="M 10, 0 l 0, 20" stroke-width="2" shape-rendering="auto" stroke="#343434" stroke-linecap="square"/></pattern><pattern id="bighashm45_limegreen" patternUnits="userSpaceOnUse" width="20" height="20"><rect width="20" height="20" fill="limegreen"/><path d="M 0,0 l 20,20 M -5,15 l 10,10&#10;M 15,-5 l 10,10" stroke-width="2" shape-rendering="auto" stroke="#343434" stroke-linecap="square"/></pattern><pattern id="bighash45_limegreen" patternUnits="userSpaceOnUse" width="20" height="20"><rect width="20" height="20" fill="limegreen"/><path d="M 0,20 l 20,-20 M -5,5 l 10,-10&#10;M 15,25 l 10,-10" stroke-width="2" shape-rendering="auto" stroke="#343434" stroke-linecap="square"/></pattern><pattern id="smallhash_limegreen" patternUnits="userSpaceOnUse" width="10" height="10"><rect width="10" height="10" fill="limegreen"/><path d="M 5, 0 l 0, 10" stroke-width="2" shape-rendering="auto" stroke="#343434" stroke-linecap="square"/></pattern><pattern id="smallhashm45_limegreen" patternUnits="userSpaceOnUse" width="10" height="10"><rect width="10" height="10" fill="limegreen"/><path d="M 0,0 l 10,10 M -2.5,7.5 l 5,5&#10;M 7.5,-2.5 l 5,5" stroke-width="2" shape-rendering="auto" stroke="#343434" stroke-linecap="square"/></pattern><pattern id="smallhash45_limegreen" patternUnits="userSpaceOnUse" width="10" height="10"><rect width="10" height="10" fill="limegreen"/><path d="M 0,10 l 10,-10 M -2.5,2.5 l 5,-5&#10;M 7.5,12.5 l 5,-5" stroke-width="2" shape-rendering="auto" stroke="#343434" stroke-linecap="square"/></pattern><pattern id="waves_limegreen" patternUnits="userSpaceOnUse" width="20" height="20"><rect width="20" height="20" fill="limegreen"/><path d="M 0 10 c 2.5 -5 , 7.5 -5 , 10 0&#10;c 2.5 5 , 7.5 5 , 10 0 M -10 10&#10;c 2.5 5 , 7.5 5 , 10 0 M 20 10&#10;c 2.5 -5 , 7.5 -5 , 10 0" fill="transparent" stroke-width="2" shape-rendering="auto" stroke="#343434" stroke-linecap="square"/></pattern><pattern id="smalldots_limegreen" patternUnits="userSpaceOnUse" width="20" height="20"><rect width="20" height="20" fill="limegreen"/><circle cx="10" cy="10" r="2" fill="#343434" stroke="#343434" stroke-width="0"/><circle cx="0" cy="0" r="2" fill="#343434" stroke="#343434" stroke-width="0"/><circle cx="0" cy="20" r="2" fill="#343434" stroke="#343434" stroke-width="0"/><circle cx="20" cy="0" r="2" fill="#343434" stroke="#343434" stroke-width="0"/><circle cx="20" cy="20" r="2" fill="#343434" stroke="#343434" stroke-width="0"/></pattern><pattern id="smalldotsline_limegreen" patternUnits="userSpaceOnUse" width="10" height="10"><rect width="10" height="10" fill="limegreen"/><circle cx="5" cy="5" r="1" fill="#343434" stroke="#343434" stroke-width="1.1"/><circle cx="0" cy="0" r="1" fill="#343434" stroke="#343434" stroke-width="1.1"/><circle cx="0" cy="10" r="1" fill="#343434" stroke="#343434" stroke-width="1.1"/><circle cx="10" cy="0" r="1" fill="#343434" stroke="#343434" stroke-width="1.1"/><circle cx="10" cy="10" r="1" fill="#343434" stroke="#343434" stroke-width="1.1"/></pattern><pattern id="smalldotsthicker_limegreen" patternUnits="userSpaceOnUse" width="10" height="10"><rect width="10" height="10" fill="limegreen"/><circle cx="5" cy="5" r="1" fill="#343434" stroke="#343434" stroke-width="1.1"/><circle cx="0" cy="0" r="1" fill="#343434" stroke="#343434" stroke-width="1.1"/><circle cx="0" cy="10" r="1" fill="#343434" stroke="#343434" stroke-width="1.1"/><circle cx="10" cy="0" r="1" fill="#343434" stroke="#343434" stroke-width="1.1"/><circle cx="10" cy="10" r="1" fill="#343434" stroke="#343434" stroke-width="1.1"/></pattern><pattern id="smalldotsthicker2_limegreen" patternUnits="userSpaceOnUse" width="10" height="10"><rect width="10" height="10" fill="limegreen"/><circle cx="5" cy="5" r="1" fill="#343434" stroke="#343434" stroke-width="1.3"/><circle cx="0" cy="0" r="1" fill="#343434" stroke="#343434" stroke-width="1.3"/><circle cx="0" cy="10" r="1" fill="#343434" stroke="#343434" stroke-width="1.3"/><circle cx="10" cy="0" r="1" fill="#343434" stroke="#343434" stroke-width="1.3"/><circle cx="10" cy="10" r="1" fill="#343434" stroke="#343434" stroke-width="1.3"/></pattern><pattern id="bigdots_limegreen" patternUnits="userSpaceOnUse" width="20" height="20"><rect width="20" height="20" fill="limegreen"/><circle cx="10" cy="10" r="4" fill="grey" stroke="#343434" stroke-width="0"/><circle cx="0" cy="0" r="4" fill="grey" stroke="#343434" stroke-width="0"/><circle cx="0" cy="20" r="4" fill="grey" stroke="#343434" stroke-width="0"/><circle cx="20" cy="0" r="4" fill="grey" stroke="#343434" stroke-width="0"/><circle cx="20" cy="20" r="4" fill="grey" stroke="#343434" stroke-width="0"/></pattern><pattern id="squares45_limegreen" patternUnits="userSpaceOnUse" width="20" height="20"><rect width="20" height="20" fill="limegreen"/><path d="M 0,20 l 20,-20 M -5,5 l 10,-10&#10;M 15,25 l 10,-10" stroke-width="1" shape-rendering="auto" stroke="#343434" stroke-linecap="square"/><path d="M 0,0 l 20,20 M -5,15 l 10,10&#10;M 15,-5 l 10,10" stroke-width="1" shape-rendering="auto" stroke="#343434" stroke-linecap="square"/></pattern><pattern id="caps_limegreen" patternUnits="userSpaceOnUse" width="20" height="20"><rect width="20" height="20" fill="limegreen"/><path d="M 5,15l5,-10l5,10" fill="transparent" stroke-width="2" shape-rendering="auto" stroke="#343434" stroke-linecap="square"/></pattern><pattern id="woven_limegreen" patternUnits="userSpaceOnUse" width="20" height="20"><rect width="20" height="20" fill="limegreen"/><path d="M 5,5l10,10M15,5l10,-10&#10;M5,15l-10,10M15,25l10,-10&#10;M-5,5l10,-10" fill="transparent" stroke-width="2" shape-rendering="auto" stroke="#343434" stroke-linecap="square"/></pattern><pattern id="solid_limegreen" patternUnits="userSpaceOnUse" width="20" height="20"><rect width="20" height="20" fill="limegreen"/><path d="M 0,20 l 20,-20 M -5,5 l 10,-10&#10;M 15,25 l 10,-10" stroke-width="0" shape-rendering="auto" stroke="#343434" stroke-linecap="square"/></pattern><pattern id="bighash_purple" patternUnits="userSpaceOnUse" width="20" height="20"><rect width="20" height="20" fill="purple"/><path d="M 10, 0 l 0, 20" stroke-width="2" shape-rendering="auto" stroke="#343434" stroke-linecap="square"/></pattern><pattern id="bighashm45_purple" patternUnits="userSpaceOnUse" width="20" height="20"><rect width="20" height="20" fill="purple"/><path d="M 0,0 l 20,20 M -5,15 l 10,10&#10;M 15,-5 l 10,10" stroke-width="2" shape-rendering="auto" stroke="#343434" stroke-linecap="square"/></pattern><pattern id="bighash45_purple" patternUnits="userSpaceOnUse" width="20" height="20"><rect width="20" height="20" fill="purple"/><path d="M 0,20 l 20,-20 M -5,5 l 10,-10&#10;M 15,25 l 10,-10" stroke-width="2" shape-rendering="auto" stroke="#343434" stroke-linecap="square"/></pattern><pattern id="smallhash_purple" patternUnits="userSpaceOnUse" width="10" height="10"><rect width="10" height="10" fill="purple"/><path d="M 5, 0 l 0, 10" stroke-width="2" shape-rendering="auto" stroke="#343434" stroke-linecap="square"/></pattern><pattern id="smallhashm45_purple" patternUnits="userSpaceOnUse" width="10" height="10"><rect width="10" height="10" fill="purple"/><path d="M 0,0 l 10,10 M -2.5,7.5 l 5,5&#10;M 7.5,-2.5 l 5,5" stroke-width="2" shape-rendering="auto" stroke="#343434" stroke-linecap="square"/></pattern><pattern id="smallhash45_purple" patternUnits="userSpaceOnUse" width="10" height="10"><rect width="10" height="10" fill="purple"/><path d="M 0,10 l 10,-10 M -2.5,2.5 l 5,-5&#10;M 7.5,12.5 l 5,-5" stroke-width="2" shape-rendering="auto" stroke="#343434" stroke-linecap="square"/></pattern><pattern id="waves_purple" patternUnits="userSpaceOnUse" width="20" height="20"><rect width="20" height="20" fill="purple"/><path d="M 0 10 c 2.5 -5 , 7.5 -5 , 10 0&#10;c 2.5 5 , 7.5 5 , 10 0 M -10 10&#10;c 2.5 5 , 7.5 5 , 10 0 M 20 10&#10;c 2.5 -5 , 7.5 -5 , 10 0" fill="transparent" stroke-width="2" shape-rendering="auto" stroke="#343434" stroke-linecap="square"/></pattern><pattern id="smalldots_purple" patternUnits="userSpaceOnUse" width="20" height="20"><rect width="20" height="20" fill="purple"/><circle cx="10" cy="10" r="2" fill="#343434" stroke="#343434" stroke-width="0"/><circle cx="0" cy="0" r="2" fill="#343434" stroke="#343434" stroke-width="0"/><circle cx="0" cy="20" r="2" fill="#343434" stroke="#343434" stroke-width="0"/><circle cx="20" cy="0" r="2" fill="#343434" stroke="#343434" stroke-width="0"/><circle cx="20" cy="20" r="2" fill="#343434" stroke="#343434" stroke-width="0"/></pattern><pattern id="smalldotsline_purple" patternUnits="userSpaceOnUse" width="10" height="10"><rect width="10" height="10" fill="purple"/><circle cx="5" cy="5" r="1" fill="#343434" stroke="#343434" stroke-width="1.1"/><circle cx="0" cy="0" r="1" fill="#343434" stroke="#343434" stroke-width="1.1"/><circle cx="0" cy="10" r="1" fill="#343434" stroke="#343434" stroke-width="1.1"/><circle cx="10" cy="0" r="1" fill="#343434" stroke="#343434" stroke-width="1.1"/><circle cx="10" cy="10" r="1" fill="#343434" stroke="#343434" stroke-width="1.1"/></pattern><pattern id="smalldotsthicker_purple" patternUnits="userSpaceOnUse" width="10" height="10"><rect width="10" height="10" fill="purple"/><circle cx="5" cy="5" r="1" fill="#343434" stroke="#343434" stroke-width="1.1"/><circle cx="0" cy="0" r="1" fill="#343434" stroke="#343434" stroke-width="1.1"/><circle cx="0" cy="10" r="1" fill="#343434" stroke="#343434" stroke-width="1.1"/><circle cx="10" cy="0" r="1" fill="#343434" stroke="#343434" stroke-width="1.1"/><circle cx="10" cy="10" r="1" fill="#343434" stroke="#343434" stroke-width="1.1"/></pattern><pattern id="smalldotsthicker2_purple" patternUnits="userSpaceOnUse" width="10" height="10"><rect width="10" height="10" fill="purple"/><circle cx="5" cy="5" r="1" fill="#343434" stroke="#343434" stroke-width="1.3"/><circle cx="0" cy="0" r="1" fill="#343434" stroke="#343434" stroke-width="1.3"/><circle cx="0" cy="10" r="1" fill="#343434" stroke="#343434" stroke-width="1.3"/><circle cx="10" cy="0" r="1" fill="#343434" stroke="#343434" stroke-width="1.3"/><circle cx="10" cy="10" r="1" fill="#343434" stroke="#343434" stroke-width="1.3"/></pattern><pattern id="bigdots_purple" patternUnits="userSpaceOnUse" width="20" height="20"><rect width="20" height="20" fill="purple"/><circle cx="10" cy="10" r="4" fill="grey" stroke="#343434" stroke-width="0"/><circle cx="0" cy="0" r="4" fill="grey" stroke="#343434" stroke-width="0"/><circle cx="0" cy="20" r="4" fill="grey" stroke="#343434" stroke-width="0"/><circle cx="20" cy="0" r="4" fill="grey" stroke="#343434" stroke-width="0"/><circle cx="20" cy="20" r="4" fill="grey" stroke="#343434" stroke-width="0"/></pattern><pattern id="squares45_purple" patternUnits="userSpaceOnUse" width="20" height="20"><rect width="20" height="20" fill="purple"/><path d="M 0,20 l 20,-20 M -5,5 l 10,-10&#10;M 15,25 l 10,-10" stroke-width="1" shape-rendering="auto" stroke="#343434" stroke-linecap="square"/><path d="M 0,0 l 20,20 M -5,15 l 10,10&#10;M 15,-5 l 10,10" stroke-width="1" shape-rendering="auto" stroke="#343434" stroke-linecap="square"/></pattern><pattern id="caps_purple" patternUnits="userSpaceOnUse" width="20" height="20"><rect width="20" height="20" fill="purple"/><path d="M 5,15l5,-10l5,10" fill="transparent" stroke-width="2" shape-rendering="auto" stroke="#343434" stroke-linecap="square"/></pattern><pattern id="woven_purple" patternUnits="userSpaceOnUse" width="20" height="20"><rect width="20" height="20" fill="purple"/><path d="M 5,5l10,10M15,5l10,-10&#10;M5,15l-10,10M15,25l10,-10&#10;M-5,5l10,-10" fill="transparent" stroke-width="2" shape-rendering="auto" stroke="#343434" stroke-linecap="square"/></pattern><pattern id="solid_purple" patternUnits="userSpaceOnUse" width="20" height="20"><rect width="20" height="20" fill="purple"/><path d="M 0,20 l 20,-20 M -5,5 l 10,-10&#10;M 15,25 l 10,-10" stroke-width="0" shape-rendering="auto" stroke="#343434" stroke-linecap="square"/></pattern></defs></svg><svg width="1049.469964664311" height="742.0494699646644" viewBox="0 0 1049.469964664311 742.0494699646644" class="braille" font-family="Braille_2007"><g><path d="M 40 40 L 1009.469964664311 40 L 1009.469964664311 702.0494699646644 L 40 702.0494699646644 L 40 40 z" fill="none" opacity=".75" stroke="#000000" stroke-width="2px" stroke-opacity="1" id="svgContainer" class="notDeletable"/></g><text x="40" y="80" font-size="35px" style="cursor: crosshair;">Légende</text></svg></svg>