<svg xmlns="http://www.w3.org/2000/svg" width="297mm" height="210mm" viewBox="0 0 1049.469964664311 742.0494699646644"><defs><pattern id="phere" patternUnits="userSpaceOnUse" width="20" height="20"><path d="M 10, 0 l 0, 20" stroke-width="2" shape-rendering="auto" stroke="#343434" stroke-linecap="square"/></pattern></defs><defs><pattern id="belov" patternUnits="userSpaceOnUse" width="20" height="20"><path d="M 0,0 l 20,20 M -5,15 l 10,10&#10;M 15,-5 l 10,10" stroke-width="2" shape-rendering="auto" stroke="#343434" stroke-linecap="square"/></pattern></defs><defs><pattern id="ezobu" patternUnits="userSpaceOnUse" width="20" height="20"><path d="M 0,20 l 20,-20 M -5,5 l 10,-10&#10;M 15,25 l 10,-10" stroke-width="2" shape-rendering="auto" stroke="#343434" stroke-linecap="square"/></pattern></defs><defs><pattern id="anqbo" patternUnits="userSpaceOnUse" width="10" height="10"><path d="M 5, 0 l 0, 10" stroke-width="2" shape-rendering="auto" stroke="#343434" stroke-linecap="square"/></pattern></defs><defs><pattern id="ydujr" patternUnits="userSpaceOnUse" width="10" height="10"><path d="M 0,0 l 10,10 M -2.5,7.5 l 5,5&#10;M 7.5,-2.5 l 5,5" stroke-width="2" shape-rendering="auto" stroke="#343434" stroke-linecap="square"/></pattern></defs><defs><pattern id="mxmtv" patternUnits="userSpaceOnUse" width="10" height="10"><path d="M 0,10 l 10,-10 M -2.5,2.5 l 5,-5&#10;M 7.5,12.5 l 5,-5" stroke-width="2" shape-rendering="auto" stroke="#343434" stroke-linecap="square"/></pattern></defs><defs><pattern id="ghdeu" patternUnits="userSpaceOnUse" width="20" height="20"><path d="M 0 10 c 2.5 -5 , 7.5 -5 , 10 0&#10;c 2.5 5 , 7.5 5 , 10 0 M -10 10&#10;c 2.5 5 , 7.5 5 , 10 0 M 20 10&#10;c 2.5 -5 , 7.5 -5 , 10 0" fill="transparent" stroke-width="2" shape-rendering="auto" stroke="#343434" stroke-linecap="square"/></pattern></defs><defs><pattern id="jxkqj" patternUnits="userSpaceOnUse" width="20" height="20"><circle cx="10" cy="10" r="2" fill="#343434" stroke="#343434" stroke-width="0"/><circle cx="0" cy="0" r="2" fill="#343434" stroke="#343434" stroke-width="0"/><circle cx="0" cy="20" r="2" fill="#343434" stroke="#343434" stroke-width="0"/><circle cx="20" cy="0" r="2" fill="#343434" stroke="#343434" stroke-width="0"/><circle cx="20" cy="20" r="2" fill="#343434" stroke="#343434" stroke-width="0"/></pattern></defs><defs><pattern id="uaxnf" patternUnits="userSpaceOnUse" width="10" height="10"><rect width="10" height="10" fill="white"/><circle cx="5" cy="5" r="1" fill="#343434" stroke="#343434" stroke-width="1.1"/><circle cx="0" cy="0" r="1" fill="#343434" stroke="#343434" stroke-width="1.1"/><circle cx="0" cy="10" r="1" fill="#343434" stroke="#343434" stroke-width="1.1"/><circle cx="10" cy="0" r="1" fill="#343434" stroke="#343434" stroke-width="1.1"/><circle cx="10" cy="10" r="1" fill="#343434" stroke="#343434" stroke-width="1.1"/></pattern></defs><defs><pattern id="uoirb" patternUnits="userSpaceOnUse" width="10" height="10"><circle cx="5" cy="5" r="1" fill="#343434" stroke="#343434" stroke-width="1.1"/><circle cx="0" cy="0" r="1" fill="#343434" stroke="#343434" stroke-width="1.1"/><circle cx="0" cy="10" r="1" fill="#343434" stroke="#343434" stroke-width="1.1"/><circle cx="10" cy="0" r="1" fill="#343434" stroke="#343434" stroke-width="1.1"/><circle cx="10" cy="10" r="1" fill="#343434" stroke="#343434" stroke-width="1.1"/></pattern></defs><defs><pattern id="slbrv" patternUnits="userSpaceOnUse" width="10" height="10"><circle cx="5" cy="5" r="1" fill="#343434" stroke="#343434" stroke-width="1.3"/><circle cx="0" cy="0" r="1" fill="#343434" stroke="#343434" stroke-width="1.3"/><circle cx="0" cy="10" r="1" fill="#343434" stroke="#343434" stroke-width="1.3"/><circle cx="10" cy="0" r="1" fill="#343434" stroke="#343434" stroke-width="1.3"/><circle cx="10" cy="10" r="1" fill="#343434" stroke="#343434" stroke-width="1.3"/></pattern></defs><defs><pattern id="mnunf" patternUnits="userSpaceOnUse" width="20" height="20"><circle cx="10" cy="10" r="4" fill="grey" stroke="#343434" stroke-width="0"/><circle cx="0" cy="0" r="4" fill="grey" stroke="#343434" stroke-width="0"/><circle cx="0" cy="20" r="4" fill="grey" stroke="#343434" stroke-width="0"/><circle cx="20" cy="0" r="4" fill="grey" stroke="#343434" stroke-width="0"/><circle cx="20" cy="20" r="4" fill="grey" stroke="#343434" stroke-width="0"/></pattern></defs><defs><pattern id="uyfos" patternUnits="userSpaceOnUse" width="20" height="20"><path d="M 0,20 l 20,-20 M -5,5 l 10,-10&#10;M 15,25 l 10,-10" stroke-width="1" shape-rendering="auto" stroke="#343434" stroke-linecap="square"/><path d="M 0,0 l 20,20 M -5,15 l 10,10&#10;M 15,-5 l 10,10" stroke-width="1" shape-rendering="auto" stroke="#343434" stroke-linecap="square"/></pattern></defs><defs><pattern id="hzmkr" patternUnits="userSpaceOnUse" width="20" height="20"><path d="M 5,15l5,-10l5,10" fill="transparent" stroke-width="2" shape-rendering="auto" stroke="#343434" stroke-linecap="square"/></pattern></defs><defs><pattern id="cyidb" patternUnits="userSpaceOnUse" width="20" height="20"><path d="M 5,5l10,10M15,5l10,-10&#10;M5,15l-10,10M15,25l10,-10&#10;M-5,5l10,-10" fill="transparent" stroke-width="2" shape-rendering="auto" stroke="#343434" stroke-linecap="square"/></pattern></defs><defs><pattern id="mbzih" patternUnits="userSpaceOnUse" width="20" height="20"><path d="M 0,20 l 20,-20 M -5,5 l 10,-10&#10;M 15,25 l 10,-10" stroke-width="0" shape-rendering="auto" stroke="#343434" stroke-linecap="square"/></pattern></defs><defs><pattern id="ulgux" patternUnits="userSpaceOnUse" width="20" height="20"><rect width="20" height="20" fill="white"/><path d="M 10, 0 l 0, 20" stroke-width="2" shape-rendering="auto" stroke="#343434" stroke-linecap="square"/></pattern></defs><defs><pattern id="kjhmd" patternUnits="userSpaceOnUse" width="20" height="20"><rect width="20" height="20" fill="white"/><path d="M 0,0 l 20,20 M -5,15 l 10,10&#10;M 15,-5 l 10,10" stroke-width="2" shape-rendering="auto" stroke="#343434" stroke-linecap="square"/></pattern></defs><defs><pattern id="byvbd" patternUnits="userSpaceOnUse" width="20" height="20"><rect width="20" height="20" fill="white"/><path d="M 0,20 l 20,-20 M -5,5 l 10,-10&#10;M 15,25 l 10,-10" stroke-width="2" shape-rendering="auto" stroke="#343434" stroke-linecap="square"/></pattern></defs><defs><pattern id="xsaqc" patternUnits="userSpaceOnUse" width="10" height="10"><rect width="10" height="10" fill="white"/><path d="M 5, 0 l 0, 10" stroke-width="2" shape-rendering="auto" stroke="#343434" stroke-linecap="square"/></pattern></defs><defs><pattern id="acqlf" patternUnits="userSpaceOnUse" width="10" height="10"><rect width="10" height="10" fill="white"/><path d="M 0,0 l 10,10 M -2.5,7.5 l 5,5&#10;M 7.5,-2.5 l 5,5" stroke-width="2" shape-rendering="auto" stroke="#343434" stroke-linecap="square"/></pattern></defs><defs><pattern id="mbqpt" patternUnits="userSpaceOnUse" width="10" height="10"><rect width="10" height="10" fill="white"/><path d="M 0,10 l 10,-10 M -2.5,2.5 l 5,-5&#10;M 7.5,12.5 l 5,-5" stroke-width="2" shape-rendering="auto" stroke="#343434" stroke-linecap="square"/></pattern></defs><defs><pattern id="cutbl" patternUnits="userSpaceOnUse" width="20" height="20"><rect width="20" height="20" fill="white"/><path d="M 0 10 c 2.5 -5 , 7.5 -5 , 10 0&#10;c 2.5 5 , 7.5 5 , 10 0 M -10 10&#10;c 2.5 5 , 7.5 5 , 10 0 M 20 10&#10;c 2.5 -5 , 7.5 -5 , 10 0" fill="transparent" stroke-width="2" shape-rendering="auto" stroke="#343434" stroke-linecap="square"/></pattern></defs><defs><pattern id="kfbhz" patternUnits="userSpaceOnUse" width="20" height="20"><rect width="20" height="20" fill="white"/><circle cx="10" cy="10" r="2" fill="#343434" stroke="#343434" stroke-width="0"/><circle cx="0" cy="0" r="2" fill="#343434" stroke="#343434" stroke-width="0"/><circle cx="0" cy="20" r="2" fill="#343434" stroke="#343434" stroke-width="0"/><circle cx="20" cy="0" r="2" fill="#343434" stroke="#343434" stroke-width="0"/><circle cx="20" cy="20" r="2" fill="#343434" stroke="#343434" stroke-width="0"/></pattern></defs><defs><pattern id="mryzs" patternUnits="userSpaceOnUse" width="10" height="10"><rect width="10" height="10" fill="white"/><circle cx="5" cy="5" r="1" fill="#343434" stroke="#343434" stroke-width="1.1"/><circle cx="0" cy="0" r="1" fill="#343434" stroke="#343434" stroke-width="1.1"/><circle cx="0" cy="10" r="1" fill="#343434" stroke="#343434" stroke-width="1.1"/><circle cx="10" cy="0" r="1" fill="#343434" stroke="#343434" stroke-width="1.1"/><circle cx="10" cy="10" r="1" fill="#343434" stroke="#343434" stroke-width="1.1"/></pattern></defs><defs><pattern id="akvkp" patternUnits="userSpaceOnUse" width="10" height="10"><rect width="10" height="10" fill="white"/><circle cx="5" cy="5" r="1" fill="#343434" stroke="#343434" stroke-width="1.1"/><circle cx="0" cy="0" r="1" fill="#343434" stroke="#343434" stroke-width="1.1"/><circle cx="0" cy="10" r="1" fill="#343434" stroke="#343434" stroke-width="1.1"/><circle cx="10" cy="0" r="1" fill="#343434" stroke="#343434" stroke-width="1.1"/><circle cx="10" cy="10" r="1" fill="#343434" stroke="#343434" stroke-width="1.1"/></pattern></defs><defs><pattern id="tbsyh" patternUnits="userSpaceOnUse" width="10" height="10"><rect width="10" height="10" fill="white"/><circle cx="5" cy="5" r="1" fill="#343434" stroke="#343434" stroke-width="1.3"/><circle cx="0" cy="0" r="1" fill="#343434" stroke="#343434" stroke-width="1.3"/><circle cx="0" cy="10" r="1" fill="#343434" stroke="#343434" stroke-width="1.3"/><circle cx="10" cy="0" r="1" fill="#343434" stroke="#343434" stroke-width="1.3"/><circle cx="10" cy="10" r="1" fill="#343434" stroke="#343434" stroke-width="1.3"/></pattern></defs><defs><pattern id="sswbv" patternUnits="userSpaceOnUse" width="20" height="20"><rect width="20" height="20" fill="white"/><circle cx="10" cy="10" r="4" fill="grey" stroke="#343434" stroke-width="0"/><circle cx="0" cy="0" r="4" fill="grey" stroke="#343434" stroke-width="0"/><circle cx="0" cy="20" r="4" fill="grey" stroke="#343434" stroke-width="0"/><circle cx="20" cy="0" r="4" fill="grey" stroke="#343434" stroke-width="0"/><circle cx="20" cy="20" r="4" fill="grey" stroke="#343434" stroke-width="0"/></pattern></defs><defs><pattern id="gbuab" patternUnits="userSpaceOnUse" width="20" height="20"><rect width="20" height="20" fill="white"/><path d="M 0,20 l 20,-20 M -5,5 l 10,-10&#10;M 15,25 l 10,-10" stroke-width="1" shape-rendering="auto" stroke="#343434" stroke-linecap="square"/><path d="M 0,0 l 20,20 M -5,15 l 10,10&#10;M 15,-5 l 10,10" stroke-width="1" shape-rendering="auto" stroke="#343434" stroke-linecap="square"/></pattern></defs><defs><pattern id="yyobx" patternUnits="userSpaceOnUse" width="20" height="20"><rect width="20" height="20" fill="white"/><path d="M 5,15l5,-10l5,10" fill="transparent" stroke-width="2" shape-rendering="auto" stroke="#343434" stroke-linecap="square"/></pattern></defs><defs><pattern id="zqdxc" patternUnits="userSpaceOnUse" width="20" height="20"><rect width="20" height="20" fill="white"/><path d="M 5,5l10,10M15,5l10,-10&#10;M5,15l-10,10M15,25l10,-10&#10;M-5,5l10,-10" fill="transparent" stroke-width="2" shape-rendering="auto" stroke="#343434" stroke-linecap="square"/></pattern></defs><defs><pattern id="uglqs" patternUnits="userSpaceOnUse" width="20" height="20"><rect width="20" height="20" fill="white"/><path d="M 0,20 l 20,-20 M -5,5 l 10,-10&#10;M 15,25 l 10,-10" stroke-width="0" shape-rendering="auto" stroke="#343434" stroke-linecap="square"/></pattern></defs><defs><pattern id="bfpvm" patternUnits="userSpaceOnUse" width="20" height="20"><rect width="20" height="20" fill="blue"/><path d="M 10, 0 l 0, 20" stroke-width="2" shape-rendering="auto" stroke="#343434" stroke-linecap="square"/></pattern></defs><defs><pattern id="oskpk" patternUnits="userSpaceOnUse" width="20" height="20"><rect width="20" height="20" fill="blue"/><path d="M 0,0 l 20,20 M -5,15 l 10,10&#10;M 15,-5 l 10,10" stroke-width="2" shape-rendering="auto" stroke="#343434" stroke-linecap="square"/></pattern></defs><defs><pattern id="lhdkh" patternUnits="userSpaceOnUse" width="20" height="20"><rect width="20" height="20" fill="blue"/><path d="M 0,20 l 20,-20 M -5,5 l 10,-10&#10;M 15,25 l 10,-10" stroke-width="2" shape-rendering="auto" stroke="#343434" stroke-linecap="square"/></pattern></defs><defs><pattern id="sqpju" patternUnits="userSpaceOnUse" width="10" height="10"><rect width="10" height="10" fill="blue"/><path d="M 5, 0 l 0, 10" stroke-width="2" shape-rendering="auto" stroke="#343434" stroke-linecap="square"/></pattern></defs><defs><pattern id="jnczr" patternUnits="userSpaceOnUse" width="10" height="10"><rect width="10" height="10" fill="blue"/><path d="M 0,0 l 10,10 M -2.5,7.5 l 5,5&#10;M 7.5,-2.5 l 5,5" stroke-width="2" shape-rendering="auto" stroke="#343434" stroke-linecap="square"/></pattern></defs><defs><pattern id="myfio" patternUnits="userSpaceOnUse" width="10" height="10"><rect width="10" height="10" fill="blue"/><path d="M 0,10 l 10,-10 M -2.5,2.5 l 5,-5&#10;M 7.5,12.5 l 5,-5" stroke-width="2" shape-rendering="auto" stroke="#343434" stroke-linecap="square"/></pattern></defs><defs><pattern id="mfuly" patternUnits="userSpaceOnUse" width="20" height="20"><rect width="20" height="20" fill="blue"/><path d="M 0 10 c 2.5 -5 , 7.5 -5 , 10 0&#10;c 2.5 5 , 7.5 5 , 10 0 M -10 10&#10;c 2.5 5 , 7.5 5 , 10 0 M 20 10&#10;c 2.5 -5 , 7.5 -5 , 10 0" fill="transparent" stroke-width="2" shape-rendering="auto" stroke="#343434" stroke-linecap="square"/></pattern></defs><defs><pattern id="vlfjo" patternUnits="userSpaceOnUse" width="20" height="20"><rect width="20" height="20" fill="blue"/><circle cx="10" cy="10" r="2" fill="#343434" stroke="#343434" stroke-width="0"/><circle cx="0" cy="0" r="2" fill="#343434" stroke="#343434" stroke-width="0"/><circle cx="0" cy="20" r="2" fill="#343434" stroke="#343434" stroke-width="0"/><circle cx="20" cy="0" r="2" fill="#343434" stroke="#343434" stroke-width="0"/><circle cx="20" cy="20" r="2" fill="#343434" stroke="#343434" stroke-width="0"/></pattern></defs><defs><pattern id="ichss" patternUnits="userSpaceOnUse" width="10" height="10"><rect width="10" height="10" fill="blue"/><circle cx="5" cy="5" r="1" fill="#343434" stroke="#343434" stroke-width="1.1"/><circle cx="0" cy="0" r="1" fill="#343434" stroke="#343434" stroke-width="1.1"/><circle cx="0" cy="10" r="1" fill="#343434" stroke="#343434" stroke-width="1.1"/><circle cx="10" cy="0" r="1" fill="#343434" stroke="#343434" stroke-width="1.1"/><circle cx="10" cy="10" r="1" fill="#343434" stroke="#343434" stroke-width="1.1"/></pattern></defs><defs><pattern id="wwqls" patternUnits="userSpaceOnUse" width="10" height="10"><rect width="10" height="10" fill="blue"/><circle cx="5" cy="5" r="1" fill="#343434" stroke="#343434" stroke-width="1.1"/><circle cx="0" cy="0" r="1" fill="#343434" stroke="#343434" stroke-width="1.1"/><circle cx="0" cy="10" r="1" fill="#343434" stroke="#343434" stroke-width="1.1"/><circle cx="10" cy="0" r="1" fill="#343434" stroke="#343434" stroke-width="1.1"/><circle cx="10" cy="10" r="1" fill="#343434" stroke="#343434" stroke-width="1.1"/></pattern></defs><defs><pattern id="jpqkb" patternUnits="userSpaceOnUse" width="10" height="10"><rect width="10" height="10" fill="blue"/><circle cx="5" cy="5" r="1" fill="#343434" stroke="#343434" stroke-width="1.3"/><circle cx="0" cy="0" r="1" fill="#343434" stroke="#343434" stroke-width="1.3"/><circle cx="0" cy="10" r="1" fill="#343434" stroke="#343434" stroke-width="1.3"/><circle cx="10" cy="0" r="1" fill="#343434" stroke="#343434" stroke-width="1.3"/><circle cx="10" cy="10" r="1" fill="#343434" stroke="#343434" stroke-width="1.3"/></pattern></defs><defs><pattern id="bhqns" patternUnits="userSpaceOnUse" width="20" height="20"><rect width="20" height="20" fill="blue"/><circle cx="10" cy="10" r="4" fill="grey" stroke="#343434" stroke-width="0"/><circle cx="0" cy="0" r="4" fill="grey" stroke="#343434" stroke-width="0"/><circle cx="0" cy="20" r="4" fill="grey" stroke="#343434" stroke-width="0"/><circle cx="20" cy="0" r="4" fill="grey" stroke="#343434" stroke-width="0"/><circle cx="20" cy="20" r="4" fill="grey" stroke="#343434" stroke-width="0"/></pattern></defs><defs><pattern id="guflp" patternUnits="userSpaceOnUse" width="20" height="20"><rect width="20" height="20" fill="blue"/><path d="M 0,20 l 20,-20 M -5,5 l 10,-10&#10;M 15,25 l 10,-10" stroke-width="1" shape-rendering="auto" stroke="#343434" stroke-linecap="square"/><path d="M 0,0 l 20,20 M -5,15 l 10,10&#10;M 15,-5 l 10,10" stroke-width="1" shape-rendering="auto" stroke="#343434" stroke-linecap="square"/></pattern></defs><defs><pattern id="ugdcb" patternUnits="userSpaceOnUse" width="20" height="20"><rect width="20" height="20" fill="blue"/><path d="M 5,15l5,-10l5,10" fill="transparent" stroke-width="2" shape-rendering="auto" stroke="#343434" stroke-linecap="square"/></pattern></defs><defs><pattern id="kodsj" patternUnits="userSpaceOnUse" width="20" height="20"><rect width="20" height="20" fill="blue"/><path d="M 5,5l10,10M15,5l10,-10&#10;M5,15l-10,10M15,25l10,-10&#10;M-5,5l10,-10" fill="transparent" stroke-width="2" shape-rendering="auto" stroke="#343434" stroke-linecap="square"/></pattern></defs><defs><pattern id="vwrrg" patternUnits="userSpaceOnUse" width="20" height="20"><rect width="20" height="20" fill="blue"/><path d="M 0,20 l 20,-20 M -5,5 l 10,-10&#10;M 15,25 l 10,-10" stroke-width="0" shape-rendering="auto" stroke="#343434" stroke-linecap="square"/></pattern></defs><defs><pattern id="dsomc" patternUnits="userSpaceOnUse" width="20" height="20"><rect width="20" height="20" fill="red"/><path d="M 10, 0 l 0, 20" stroke-width="2" shape-rendering="auto" stroke="#343434" stroke-linecap="square"/></pattern></defs><defs><pattern id="jkfvs" patternUnits="userSpaceOnUse" width="20" height="20"><rect width="20" height="20" fill="red"/><path d="M 0,0 l 20,20 M -5,15 l 10,10&#10;M 15,-5 l 10,10" stroke-width="2" shape-rendering="auto" stroke="#343434" stroke-linecap="square"/></pattern></defs><defs><pattern id="eawmf" patternUnits="userSpaceOnUse" width="20" height="20"><rect width="20" height="20" fill="red"/><path d="M 0,20 l 20,-20 M -5,5 l 10,-10&#10;M 15,25 l 10,-10" stroke-width="2" shape-rendering="auto" stroke="#343434" stroke-linecap="square"/></pattern></defs><defs><pattern id="admna" patternUnits="userSpaceOnUse" width="10" height="10"><rect width="10" height="10" fill="red"/><path d="M 5, 0 l 0, 10" stroke-width="2" shape-rendering="auto" stroke="#343434" stroke-linecap="square"/></pattern></defs><defs><pattern id="rcjoi" patternUnits="userSpaceOnUse" width="10" height="10"><rect width="10" height="10" fill="red"/><path d="M 0,0 l 10,10 M -2.5,7.5 l 5,5&#10;M 7.5,-2.5 l 5,5" stroke-width="2" shape-rendering="auto" stroke="#343434" stroke-linecap="square"/></pattern></defs><defs><pattern id="whcaf" patternUnits="userSpaceOnUse" width="10" height="10"><rect width="10" height="10" fill="red"/><path d="M 0,10 l 10,-10 M -2.5,2.5 l 5,-5&#10;M 7.5,12.5 l 5,-5" stroke-width="2" shape-rendering="auto" stroke="#343434" stroke-linecap="square"/></pattern></defs><defs><pattern id="dwcfd" patternUnits="userSpaceOnUse" width="20" height="20"><rect width="20" height="20" fill="red"/><path d="M 0 10 c 2.5 -5 , 7.5 -5 , 10 0&#10;c 2.5 5 , 7.5 5 , 10 0 M -10 10&#10;c 2.5 5 , 7.5 5 , 10 0 M 20 10&#10;c 2.5 -5 , 7.5 -5 , 10 0" fill="transparent" stroke-width="2" shape-rendering="auto" stroke="#343434" stroke-linecap="square"/></pattern></defs><defs><pattern id="uhyzr" patternUnits="userSpaceOnUse" width="20" height="20"><rect width="20" height="20" fill="red"/><circle cx="10" cy="10" r="2" fill="#343434" stroke="#343434" stroke-width="0"/><circle cx="0" cy="0" r="2" fill="#343434" stroke="#343434" stroke-width="0"/><circle cx="0" cy="20" r="2" fill="#343434" stroke="#343434" stroke-width="0"/><circle cx="20" cy="0" r="2" fill="#343434" stroke="#343434" stroke-width="0"/><circle cx="20" cy="20" r="2" fill="#343434" stroke="#343434" stroke-width="0"/></pattern></defs><defs><pattern id="qqeif" patternUnits="userSpaceOnUse" width="10" height="10"><rect width="10" height="10" fill="red"/><circle cx="5" cy="5" r="1" fill="#343434" stroke="#343434" stroke-width="1.1"/><circle cx="0" cy="0" r="1" fill="#343434" stroke="#343434" stroke-width="1.1"/><circle cx="0" cy="10" r="1" fill="#343434" stroke="#343434" stroke-width="1.1"/><circle cx="10" cy="0" r="1" fill="#343434" stroke="#343434" stroke-width="1.1"/><circle cx="10" cy="10" r="1" fill="#343434" stroke="#343434" stroke-width="1.1"/></pattern></defs><defs><pattern id="cuuoe" patternUnits="userSpaceOnUse" width="10" height="10"><rect width="10" height="10" fill="red"/><circle cx="5" cy="5" r="1" fill="#343434" stroke="#343434" stroke-width="1.1"/><circle cx="0" cy="0" r="1" fill="#343434" stroke="#343434" stroke-width="1.1"/><circle cx="0" cy="10" r="1" fill="#343434" stroke="#343434" stroke-width="1.1"/><circle cx="10" cy="0" r="1" fill="#343434" stroke="#343434" stroke-width="1.1"/><circle cx="10" cy="10" r="1" fill="#343434" stroke="#343434" stroke-width="1.1"/></pattern></defs><defs><pattern id="pzseq" patternUnits="userSpaceOnUse" width="10" height="10"><rect width="10" height="10" fill="red"/><circle cx="5" cy="5" r="1" fill="#343434" stroke="#343434" stroke-width="1.3"/><circle cx="0" cy="0" r="1" fill="#343434" stroke="#343434" stroke-width="1.3"/><circle cx="0" cy="10" r="1" fill="#343434" stroke="#343434" stroke-width="1.3"/><circle cx="10" cy="0" r="1" fill="#343434" stroke="#343434" stroke-width="1.3"/><circle cx="10" cy="10" r="1" fill="#343434" stroke="#343434" stroke-width="1.3"/></pattern></defs><defs><pattern id="kbshc" patternUnits="userSpaceOnUse" width="20" height="20"><rect width="20" height="20" fill="red"/><circle cx="10" cy="10" r="4" fill="grey" stroke="#343434" stroke-width="0"/><circle cx="0" cy="0" r="4" fill="grey" stroke="#343434" stroke-width="0"/><circle cx="0" cy="20" r="4" fill="grey" stroke="#343434" stroke-width="0"/><circle cx="20" cy="0" r="4" fill="grey" stroke="#343434" stroke-width="0"/><circle cx="20" cy="20" r="4" fill="grey" stroke="#343434" stroke-width="0"/></pattern></defs><defs><pattern id="rrqtr" patternUnits="userSpaceOnUse" width="20" height="20"><rect width="20" height="20" fill="red"/><path d="M 0,20 l 20,-20 M -5,5 l 10,-10&#10;M 15,25 l 10,-10" stroke-width="1" shape-rendering="auto" stroke="#343434" stroke-linecap="square"/><path d="M 0,0 l 20,20 M -5,15 l 10,10&#10;M 15,-5 l 10,10" stroke-width="1" shape-rendering="auto" stroke="#343434" stroke-linecap="square"/></pattern></defs><defs><pattern id="tmmle" patternUnits="userSpaceOnUse" width="20" height="20"><rect width="20" height="20" fill="red"/><path d="M 5,15l5,-10l5,10" fill="transparent" stroke-width="2" shape-rendering="auto" stroke="#343434" stroke-linecap="square"/></pattern></defs><defs><pattern id="mrqvv" patternUnits="userSpaceOnUse" width="20" height="20"><rect width="20" height="20" fill="red"/><path d="M 5,5l10,10M15,5l10,-10&#10;M5,15l-10,10M15,25l10,-10&#10;M-5,5l10,-10" fill="transparent" stroke-width="2" shape-rendering="auto" stroke="#343434" stroke-linecap="square"/></pattern></defs><defs><pattern id="aqwwk" patternUnits="userSpaceOnUse" width="20" height="20"><rect width="20" height="20" fill="red"/><path d="M 0,20 l 20,-20 M -5,5 l 10,-10&#10;M 15,25 l 10,-10" stroke-width="0" shape-rendering="auto" stroke="#343434" stroke-linecap="square"/></pattern></defs><defs><pattern id="qoohm" patternUnits="userSpaceOnUse" width="20" height="20"><rect width="20" height="20" fill="yellow"/><path d="M 10, 0 l 0, 20" stroke-width="2" shape-rendering="auto" stroke="#343434" stroke-linecap="square"/></pattern></defs><defs><pattern id="yhitx" patternUnits="userSpaceOnUse" width="20" height="20"><rect width="20" height="20" fill="yellow"/><path d="M 0,0 l 20,20 M -5,15 l 10,10&#10;M 15,-5 l 10,10" stroke-width="2" shape-rendering="auto" stroke="#343434" stroke-linecap="square"/></pattern></defs><defs><pattern id="gmnsl" patternUnits="userSpaceOnUse" width="20" height="20"><rect width="20" height="20" fill="yellow"/><path d="M 0,20 l 20,-20 M -5,5 l 10,-10&#10;M 15,25 l 10,-10" stroke-width="2" shape-rendering="auto" stroke="#343434" stroke-linecap="square"/></pattern></defs><defs><pattern id="oboyj" patternUnits="userSpaceOnUse" width="10" height="10"><rect width="10" height="10" fill="yellow"/><path d="M 5, 0 l 0, 10" stroke-width="2" shape-rendering="auto" stroke="#343434" stroke-linecap="square"/></pattern></defs><defs><pattern id="jjzqi" patternUnits="userSpaceOnUse" width="10" height="10"><rect width="10" height="10" fill="yellow"/><path d="M 0,0 l 10,10 M -2.5,7.5 l 5,5&#10;M 7.5,-2.5 l 5,5" stroke-width="2" shape-rendering="auto" stroke="#343434" stroke-linecap="square"/></pattern></defs><defs><pattern id="mozgc" patternUnits="userSpaceOnUse" width="10" height="10"><rect width="10" height="10" fill="yellow"/><path d="M 0,10 l 10,-10 M -2.5,2.5 l 5,-5&#10;M 7.5,12.5 l 5,-5" stroke-width="2" shape-rendering="auto" stroke="#343434" stroke-linecap="square"/></pattern></defs><defs><pattern id="boyss" patternUnits="userSpaceOnUse" width="20" height="20"><rect width="20" height="20" fill="yellow"/><path d="M 0 10 c 2.5 -5 , 7.5 -5 , 10 0&#10;c 2.5 5 , 7.5 5 , 10 0 M -10 10&#10;c 2.5 5 , 7.5 5 , 10 0 M 20 10&#10;c 2.5 -5 , 7.5 -5 , 10 0" fill="transparent" stroke-width="2" shape-rendering="auto" stroke="#343434" stroke-linecap="square"/></pattern></defs><defs><pattern id="lswla" patternUnits="userSpaceOnUse" width="20" height="20"><rect width="20" height="20" fill="yellow"/><circle cx="10" cy="10" r="2" fill="#343434" stroke="#343434" stroke-width="0"/><circle cx="0" cy="0" r="2" fill="#343434" stroke="#343434" stroke-width="0"/><circle cx="0" cy="20" r="2" fill="#343434" stroke="#343434" stroke-width="0"/><circle cx="20" cy="0" r="2" fill="#343434" stroke="#343434" stroke-width="0"/><circle cx="20" cy="20" r="2" fill="#343434" stroke="#343434" stroke-width="0"/></pattern></defs><defs><pattern id="ofgos" patternUnits="userSpaceOnUse" width="10" height="10"><rect width="10" height="10" fill="yellow"/><circle cx="5" cy="5" r="1" fill="#343434" stroke="#343434" stroke-width="1.1"/><circle cx="0" cy="0" r="1" fill="#343434" stroke="#343434" stroke-width="1.1"/><circle cx="0" cy="10" r="1" fill="#343434" stroke="#343434" stroke-width="1.1"/><circle cx="10" cy="0" r="1" fill="#343434" stroke="#343434" stroke-width="1.1"/><circle cx="10" cy="10" r="1" fill="#343434" stroke="#343434" stroke-width="1.1"/></pattern></defs><defs><pattern id="apkcr" patternUnits="userSpaceOnUse" width="10" height="10"><rect width="10" height="10" fill="yellow"/><circle cx="5" cy="5" r="1" fill="#343434" stroke="#343434" stroke-width="1.1"/><circle cx="0" cy="0" r="1" fill="#343434" stroke="#343434" stroke-width="1.1"/><circle cx="0" cy="10" r="1" fill="#343434" stroke="#343434" stroke-width="1.1"/><circle cx="10" cy="0" r="1" fill="#343434" stroke="#343434" stroke-width="1.1"/><circle cx="10" cy="10" r="1" fill="#343434" stroke="#343434" stroke-width="1.1"/></pattern></defs><defs><pattern id="lunsx" patternUnits="userSpaceOnUse" width="10" height="10"><rect width="10" height="10" fill="yellow"/><circle cx="5" cy="5" r="1" fill="#343434" stroke="#343434" stroke-width="1.3"/><circle cx="0" cy="0" r="1" fill="#343434" stroke="#343434" stroke-width="1.3"/><circle cx="0" cy="10" r="1" fill="#343434" stroke="#343434" stroke-width="1.3"/><circle cx="10" cy="0" r="1" fill="#343434" stroke="#343434" stroke-width="1.3"/><circle cx="10" cy="10" r="1" fill="#343434" stroke="#343434" stroke-width="1.3"/></pattern></defs><defs><pattern id="pabfo" patternUnits="userSpaceOnUse" width="20" height="20"><rect width="20" height="20" fill="yellow"/><circle cx="10" cy="10" r="4" fill="grey" stroke="#343434" stroke-width="0"/><circle cx="0" cy="0" r="4" fill="grey" stroke="#343434" stroke-width="0"/><circle cx="0" cy="20" r="4" fill="grey" stroke="#343434" stroke-width="0"/><circle cx="20" cy="0" r="4" fill="grey" stroke="#343434" stroke-width="0"/><circle cx="20" cy="20" r="4" fill="grey" stroke="#343434" stroke-width="0"/></pattern></defs><defs><pattern id="xqqxw" patternUnits="userSpaceOnUse" width="20" height="20"><rect width="20" height="20" fill="yellow"/><path d="M 0,20 l 20,-20 M -5,5 l 10,-10&#10;M 15,25 l 10,-10" stroke-width="1" shape-rendering="auto" stroke="#343434" stroke-linecap="square"/><path d="M 0,0 l 20,20 M -5,15 l 10,10&#10;M 15,-5 l 10,10" stroke-width="1" shape-rendering="auto" stroke="#343434" stroke-linecap="square"/></pattern></defs><defs><pattern id="mrdvg" patternUnits="userSpaceOnUse" width="20" height="20"><rect width="20" height="20" fill="yellow"/><path d="M 5,15l5,-10l5,10" fill="transparent" stroke-width="2" shape-rendering="auto" stroke="#343434" stroke-linecap="square"/></pattern></defs><defs><pattern id="xahor" patternUnits="userSpaceOnUse" width="20" height="20"><rect width="20" height="20" fill="yellow"/><path d="M 5,5l10,10M15,5l10,-10&#10;M5,15l-10,10M15,25l10,-10&#10;M-5,5l10,-10" fill="transparent" stroke-width="2" shape-rendering="auto" stroke="#343434" stroke-linecap="square"/></pattern></defs><defs><pattern id="glspa" patternUnits="userSpaceOnUse" width="20" height="20"><rect width="20" height="20" fill="yellow"/><path d="M 0,20 l 20,-20 M -5,5 l 10,-10&#10;M 15,25 l 10,-10" stroke-width="0" shape-rendering="auto" stroke="#343434" stroke-linecap="square"/></pattern></defs><g width="1049.469964664311" height="742.0494699646644"><text x="40" y="80" class="braille" font-family="Braille_2007" font-size="35px">Légende</text></g><g id="margin-layer" width="1049.469964664311" height="742.0494699646644"><path d="M 0 0 L 0 742.0494699646644 L 1049.469964664311 742.0494699646644 L 1049.469964664311 0 L 0 0 z M 40 40 L 1009.469964664311 40 L 1009.469964664311 702.0494699646644 L 40 702.0494699646644 L 40 40 z" style="opacity:1;fill:#ffffff;fill-opacity:1" id="svgWhiteBorder" class="notDeletable"/></g></svg>