<?xml version="1.0" encoding="UTF-8" standalone="no"?>
<svg
   xmlns:dc="http://purl.org/dc/elements/1.1/"
   xmlns:cc="http://creativecommons.org/ns#"
   xmlns:rdf="http://www.w3.org/1999/02/22-rdf-syntax-ns#"
   xmlns:svg="http://www.w3.org/2000/svg"
   xmlns="http://www.w3.org/2000/svg"
   xmlns:sodipodi="http://sodipodi.sourceforge.net/DTD/sodipodi-0.dtd"
   xmlns:inkscape="http://www.inkscape.org/namespaces/inkscape"
   width="26"
   height="26"
   viewBox="0 0 26 26"
   id="svg2"
   version="1.1"
   inkscape:version="0.91 r"
   sodipodi:docname="polygon-fill.svg">
  <metadata
     id="metadata10">
    <rdf:RDF>
      <cc:Work
         rdf:about="">
        <dc:format>image/svg+xml</dc:format>
        <dc:type
           rdf:resource="http://purl.org/dc/dcmitype/StillImage" />
        <dc:title></dc:title>
      </cc:Work>
    </rdf:RDF>
  </metadata>
  <defs
     id="defs8" />
  <sodipodi:namedview
     pagecolor="#ffffff"
     bordercolor="#666666"
     borderopacity="1"
     objecttolerance="10"
     gridtolerance="10"
     guidetolerance="10"
     inkscape:pageopacity="0"
     inkscape:pageshadow="2"
     inkscape:window-width="1920"
     inkscape:window-height="1016"
     id="namedview6"
     showgrid="false"
     inkscape:zoom="9.0769231"
     inkscape:cx="-6.4449153"
     inkscape:cy="13"
     inkscape:window-x="0"
     inkscape:window-y="27"
     inkscape:window-maximized="1"
     inkscape:current-layer="svg2" />
  <path
     style="color:#000000;line-height:normal;font-family:'Bitstream Vera Sans';-inkscape-font-specification:'Bitstream Vera Sans';text-indent:0;text-align:start;text-transform:none;block-progression:tb;overflow:visible;enable-background:accumulate;fill:#ff0000;fill-opacity:1"
     d="m 10,0.1875 c -0.9805758,0 -1.7798678,0.77736753 -1.8125,1.75 L 2.75,5.34375 C 2.5258149,5.2445008 2.26095,5.1875 2,5.1875 0.99870777,5.1875 0.1875,5.9987078 0.1875,7 0.1875,7.6258076 0.51773889,8.1741908 1,8.5 l 0,14 c -0.48226111,0.325809 -0.8125,0.874192 -0.8125,1.5 0,1.001292 0.81120777,1.8125 1.8125,1.8125 0.6258076,0 1.1741908,-0.330239 1.5,-0.8125 l 12,0 c 0.325809,0.482261 0.874192,0.8125 1.5,0.8125 1.001292,0 1.8125,-0.811208 1.8125,-1.8125 0,-0.192767 -0.03802,-0.388225 -0.09375,-0.5625 l 5.15625,-6.625 c 0.04074,0.0027 0.08357,0 0.125,0 1.001292,0 1.8125,-0.811208 1.8125,-1.8125 0,-0.927921 -0.694672,-1.674105 -1.59375,-1.78125 L 20.5625,5.875 c 0.146493,-0.2616286 0.25,-0.5538308 0.25,-0.875 0,-1.0012922 -0.811208,-1.8125 -1.8125,-1.8125 -0.430363,0 -0.814079,0.1557457 -1.125,0.40625 L 11.75,1.53125 C 11.546376,0.75275273 10.842328,0.1875 10,0.1875 Z"
     overflow="visible"
     id="path4"
     inkscape:connector-curvature="0"
     sodipodi:nodetypes="sccssccssccssccssccssccs" />
</svg>
