<?xml version="1.0" encoding="UTF-8" standalone="no"?>
<svg
   xmlns:dc="http://purl.org/dc/elements/1.1/"
   xmlns:cc="http://creativecommons.org/ns#"
   xmlns:rdf="http://www.w3.org/1999/02/22-rdf-syntax-ns#"
   xmlns:svg="http://www.w3.org/2000/svg"
   xmlns="http://www.w3.org/2000/svg"
   xmlns:sodipodi="http://sodipodi.sourceforge.net/DTD/sodipodi-0.dtd"
   xmlns:inkscape="http://www.inkscape.org/namespaces/inkscape"
   width="26"
   height="26"
   viewBox="0 0 26 26"
   id="svg2"
   version="1.1"
   inkscape:version="0.91 r"
   sodipodi:docname="polygon1.svg">
  <metadata
     id="metadata10">
    <rdf:RDF>
      <cc:Work
         rdf:about="">
        <dc:format>image/svg+xml</dc:format>
        <dc:type
           rdf:resource="http://purl.org/dc/dcmitype/StillImage" />
      </cc:Work>
    </rdf:RDF>
  </metadata>
  <defs
     id="defs8" />
  <sodipodi:namedview
     pagecolor="#ffffff"
     bordercolor="#666666"
     borderopacity="1"
     objecttolerance="10"
     gridtolerance="10"
     guidetolerance="10"
     inkscape:pageopacity="0"
     inkscape:pageshadow="2"
     inkscape:window-width="1920"
     inkscape:window-height="1016"
     id="namedview6"
     showgrid="false"
     inkscape:zoom="9.0769231"
     inkscape:cx="-6.4449153"
     inkscape:cy="13"
     inkscape:window-x="0"
     inkscape:window-y="27"
     inkscape:window-maximized="1"
     inkscape:current-layer="svg2" />
  <path
     style="text-indent:0;text-align:start;line-height:normal;text-transform:none;block-progression:tb;-inkscape-font-specification:Bitstream Vera Sans;fill:#ff0000;fill-opacity:1"
     d="M 10 0.1875 C 9.0194242 0.1875 8.2201322 0.96486753 8.1875 1.9375 L 2.75 5.34375 C 2.5258149 5.2445008 2.26095 5.1875 2 5.1875 C 0.99870777 5.1875 0.1875 5.9987078 0.1875 7 C 0.1875 7.6258076 0.51773889 8.1741908 1 8.5 L 1 22.5 C 0.51773889 22.825809 0.1875 23.374192 0.1875 24 C 0.1875 25.001292 0.99870777 25.8125 2 25.8125 C 2.6258076 25.8125 3.1741908 25.482261 3.5 25 L 15.5 25 C 15.825809 25.482261 16.374192 25.8125 17 25.8125 C 18.001292 25.8125 18.8125 25.001292 18.8125 24 C 18.8125 23.807233 18.77448 23.611775 18.71875 23.4375 L 23.875 16.8125 C 23.915739 16.815236 23.958567 16.8125 24 16.8125 C 25.001292 16.8125 25.8125 16.001292 25.8125 15 C 25.8125 14.072079 25.117828 13.325895 24.21875 13.21875 L 20.5625 5.875 C 20.708993 5.6133714 20.8125 5.3211692 20.8125 5 C 20.8125 3.9987078 20.001292 3.1875 19 3.1875 C 18.569637 3.1875 18.185921 3.3432457 17.875 3.59375 L 11.75 1.53125 C 11.546376 0.75275273 10.842328 0.1875 10 0.1875 z M 11.09375 3.40625 L 17.25 5.46875 C 17.435887 6.1794367 18.036195 6.6924604 18.78125 6.78125 L 22.4375 14.125 C 22.291007 14.386629 22.1875 14.678831 22.1875 15 C 22.1875 15.192767 22.22552 15.388225 22.28125 15.5625 L 17.125 22.1875 C 17.084261 22.184764 17.041433 22.1875 17 22.1875 C 16.374192 22.1875 15.825809 22.517739 15.5 23 L 3.5 23 C 3.3696763 22.807096 3.1929044 22.630324 3 22.5 L 3 8.5 C 3.4662966 8.1849762 3.7923634 7.6626896 3.8125 7.0625 L 9.25 3.65625 C 9.4741851 3.7554992 9.73905 3.8125 10 3.8125 C 10.421698 3.8125 10.785778 3.6477233 11.09375 3.40625 z"
     color="#000"
     overflow="visible"
     enable-background="accumulate"
     font-family="Bitstream Vera Sans"
     id="path4" />
</svg>
