<svg xmlns="http://www.w3.org/2000/svg" width="297mm" height="210mm" viewBox="0 0 1049.469964664311 742.0494699646644"><defs><marker id="arrowmarker" refX="5" refY="5" markerWidth="10" markerHeight="10" orient="auto"><path d="M1,1 L5,5 1,9" style="fill:none;stroke:#000000;stroke-opacity:1"/></marker></defs><defs><pattern id="uwuns" patternUnits="userSpaceOnUse" width="20" height="20"><path d="M 10, 0 l 0, 20" stroke-width="2" shape-rendering="auto" stroke="#343434" stroke-linecap="square"/></pattern></defs><defs><pattern id="ngkvv" patternUnits="userSpaceOnUse" width="20" height="20"><path d="M 0,0 l 20,20 M -5,15 l 10,10
M 15,-5 l 10,10" stroke-width="2" shape-rendering="auto" stroke="#343434" stroke-linecap="square"/></pattern></defs><defs><pattern id="xzssa" patternUnits="userSpaceOnUse" width="20" height="20"><path d="M 0,20 l 20,-20 M -5,5 l 10,-10
M 15,25 l 10,-10" stroke-width="2" shape-rendering="auto" stroke="#343434" stroke-linecap="square"/></pattern></defs><defs><pattern id="ngdjh" patternUnits="userSpaceOnUse" width="10" height="10"><path d="M 5, 0 l 0, 10" stroke-width="2" shape-rendering="auto" stroke="#343434" stroke-linecap="square"/></pattern></defs><defs><pattern id="qgstq" patternUnits="userSpaceOnUse" width="10" height="10"><path d="M 0,0 l 10,10 M -2.5,7.5 l 5,5
M 7.5,-2.5 l 5,5" stroke-width="2" shape-rendering="auto" stroke="#343434" stroke-linecap="square"/></pattern></defs><defs><pattern id="nyigk" patternUnits="userSpaceOnUse" width="10" height="10"><path d="M 0,10 l 10,-10 M -2.5,2.5 l 5,-5
M 7.5,12.5 l 5,-5" stroke-width="2" shape-rendering="auto" stroke="#343434" stroke-linecap="square"/></pattern></defs><defs><pattern id="cqgam" patternUnits="userSpaceOnUse" width="20" height="20"><path d="M 0 10 c 2.5 -5 , 7.5 -5 , 10 0
c 2.5 5 , 7.5 5 , 10 0 M -10 10
c 2.5 5 , 7.5 5 , 10 0 M 20 10
c 2.5 -5 , 7.5 -5 , 10 0" fill="transparent" stroke-width="2" shape-rendering="auto" stroke="#343434" stroke-linecap="square"/></pattern></defs><defs><pattern id="evzmv" patternUnits="userSpaceOnUse" width="20" height="20"><circle cx="10" cy="10" r="2" fill="#343434" stroke="#343434" stroke-width="0"/><circle cx="0" cy="0" r="2" fill="#343434" stroke="#343434" stroke-width="0"/><circle cx="0" cy="20" r="2" fill="#343434" stroke="#343434" stroke-width="0"/><circle cx="20" cy="0" r="2" fill="#343434" stroke="#343434" stroke-width="0"/><circle cx="20" cy="20" r="2" fill="#343434" stroke="#343434" stroke-width="0"/></pattern></defs><defs><pattern id="hxjam" patternUnits="userSpaceOnUse" width="10" height="10"><rect width="10" height="10" fill="white"/><circle cx="5" cy="5" r="1" fill="#343434" stroke="#343434" stroke-width="1.1"/><circle cx="0" cy="0" r="1" fill="#343434" stroke="#343434" stroke-width="1.1"/><circle cx="0" cy="10" r="1" fill="#343434" stroke="#343434" stroke-width="1.1"/><circle cx="10" cy="0" r="1" fill="#343434" stroke="#343434" stroke-width="1.1"/><circle cx="10" cy="10" r="1" fill="#343434" stroke="#343434" stroke-width="1.1"/></pattern></defs><defs><pattern id="dlwcd" patternUnits="userSpaceOnUse" width="10" height="10"><circle cx="5" cy="5" r="1" fill="#343434" stroke="#343434" stroke-width="1.1"/><circle cx="0" cy="0" r="1" fill="#343434" stroke="#343434" stroke-width="1.1"/><circle cx="0" cy="10" r="1" fill="#343434" stroke="#343434" stroke-width="1.1"/><circle cx="10" cy="0" r="1" fill="#343434" stroke="#343434" stroke-width="1.1"/><circle cx="10" cy="10" r="1" fill="#343434" stroke="#343434" stroke-width="1.1"/></pattern></defs><defs><pattern id="piwct" patternUnits="userSpaceOnUse" width="10" height="10"><circle cx="5" cy="5" r="1" fill="#343434" stroke="#343434" stroke-width="1.3"/><circle cx="0" cy="0" r="1" fill="#343434" stroke="#343434" stroke-width="1.3"/><circle cx="0" cy="10" r="1" fill="#343434" stroke="#343434" stroke-width="1.3"/><circle cx="10" cy="0" r="1" fill="#343434" stroke="#343434" stroke-width="1.3"/><circle cx="10" cy="10" r="1" fill="#343434" stroke="#343434" stroke-width="1.3"/></pattern></defs><defs><pattern id="wzqqs" patternUnits="userSpaceOnUse" width="20" height="20"><circle cx="10" cy="10" r="4" fill="grey" stroke="#343434" stroke-width="0"/><circle cx="0" cy="0" r="4" fill="grey" stroke="#343434" stroke-width="0"/><circle cx="0" cy="20" r="4" fill="grey" stroke="#343434" stroke-width="0"/><circle cx="20" cy="0" r="4" fill="grey" stroke="#343434" stroke-width="0"/><circle cx="20" cy="20" r="4" fill="grey" stroke="#343434" stroke-width="0"/></pattern></defs><defs><pattern id="pguqf" patternUnits="userSpaceOnUse" width="20" height="20"><path d="M 0,20 l 20,-20 M -5,5 l 10,-10
M 15,25 l 10,-10" stroke-width="1" shape-rendering="auto" stroke="#343434" stroke-linecap="square"/><path d="M 0,0 l 20,20 M -5,15 l 10,10
M 15,-5 l 10,10" stroke-width="1" shape-rendering="auto" stroke="#343434" stroke-linecap="square"/></pattern></defs><defs><pattern id="fkrwm" patternUnits="userSpaceOnUse" width="20" height="20"><path d="M 5,15l5,-10l5,10" fill="transparent" stroke-width="2" shape-rendering="auto" stroke="#343434" stroke-linecap="square"/></pattern></defs><defs><pattern id="nfmdx" patternUnits="userSpaceOnUse" width="20" height="20"><path d="M 5,5l10,10M15,5l10,-10
M5,15l-10,10M15,25l10,-10
M-5,5l10,-10" fill="transparent" stroke-width="2" shape-rendering="auto" stroke="#343434" stroke-linecap="square"/></pattern></defs><defs><pattern id="osrml" patternUnits="userSpaceOnUse" width="20" height="20"><path d="M 0,20 l 20,-20 M -5,5 l 10,-10
M 15,25 l 10,-10" stroke-width="0" shape-rendering="auto" stroke="#343434" stroke-linecap="square"/></pattern></defs><defs><pattern id="zttvw" patternUnits="userSpaceOnUse" width="20" height="20"><rect width="20" height="20" fill="white"/><path d="M 10, 0 l 0, 20" stroke-width="2" shape-rendering="auto" stroke="#343434" stroke-linecap="square"/></pattern></defs><defs><pattern id="wdyud" patternUnits="userSpaceOnUse" width="20" height="20"><rect width="20" height="20" fill="white"/><path d="M 0,0 l 20,20 M -5,15 l 10,10
M 15,-5 l 10,10" stroke-width="2" shape-rendering="auto" stroke="#343434" stroke-linecap="square"/></pattern></defs><defs><pattern id="ngstm" patternUnits="userSpaceOnUse" width="20" height="20"><rect width="20" height="20" fill="white"/><path d="M 0,20 l 20,-20 M -5,5 l 10,-10
M 15,25 l 10,-10" stroke-width="2" shape-rendering="auto" stroke="#343434" stroke-linecap="square"/></pattern></defs><defs><pattern id="azjaq" patternUnits="userSpaceOnUse" width="10" height="10"><rect width="10" height="10" fill="white"/><path d="M 5, 0 l 0, 10" stroke-width="2" shape-rendering="auto" stroke="#343434" stroke-linecap="square"/></pattern></defs><defs><pattern id="sokhn" patternUnits="userSpaceOnUse" width="10" height="10"><rect width="10" height="10" fill="white"/><path d="M 0,0 l 10,10 M -2.5,7.5 l 5,5
M 7.5,-2.5 l 5,5" stroke-width="2" shape-rendering="auto" stroke="#343434" stroke-linecap="square"/></pattern></defs><defs><pattern id="vzgzp" patternUnits="userSpaceOnUse" width="10" height="10"><rect width="10" height="10" fill="white"/><path d="M 0,10 l 10,-10 M -2.5,2.5 l 5,-5
M 7.5,12.5 l 5,-5" stroke-width="2" shape-rendering="auto" stroke="#343434" stroke-linecap="square"/></pattern></defs><defs><pattern id="klvqd" patternUnits="userSpaceOnUse" width="20" height="20"><rect width="20" height="20" fill="white"/><path d="M 0 10 c 2.5 -5 , 7.5 -5 , 10 0
c 2.5 5 , 7.5 5 , 10 0 M -10 10
c 2.5 5 , 7.5 5 , 10 0 M 20 10
c 2.5 -5 , 7.5 -5 , 10 0" fill="transparent" stroke-width="2" shape-rendering="auto" stroke="#343434" stroke-linecap="square"/></pattern></defs><defs><pattern id="ehqev" patternUnits="userSpaceOnUse" width="20" height="20"><rect width="20" height="20" fill="white"/><circle cx="10" cy="10" r="2" fill="#343434" stroke="#343434" stroke-width="0"/><circle cx="0" cy="0" r="2" fill="#343434" stroke="#343434" stroke-width="0"/><circle cx="0" cy="20" r="2" fill="#343434" stroke="#343434" stroke-width="0"/><circle cx="20" cy="0" r="2" fill="#343434" stroke="#343434" stroke-width="0"/><circle cx="20" cy="20" r="2" fill="#343434" stroke="#343434" stroke-width="0"/></pattern></defs><defs><pattern id="qviye" patternUnits="userSpaceOnUse" width="10" height="10"><rect width="10" height="10" fill="white"/><circle cx="5" cy="5" r="1" fill="#343434" stroke="#343434" stroke-width="1.1"/><circle cx="0" cy="0" r="1" fill="#343434" stroke="#343434" stroke-width="1.1"/><circle cx="0" cy="10" r="1" fill="#343434" stroke="#343434" stroke-width="1.1"/><circle cx="10" cy="0" r="1" fill="#343434" stroke="#343434" stroke-width="1.1"/><circle cx="10" cy="10" r="1" fill="#343434" stroke="#343434" stroke-width="1.1"/></pattern></defs><defs><pattern id="ycrfm" patternUnits="userSpaceOnUse" width="10" height="10"><rect width="10" height="10" fill="white"/><circle cx="5" cy="5" r="1" fill="#343434" stroke="#343434" stroke-width="1.1"/><circle cx="0" cy="0" r="1" fill="#343434" stroke="#343434" stroke-width="1.1"/><circle cx="0" cy="10" r="1" fill="#343434" stroke="#343434" stroke-width="1.1"/><circle cx="10" cy="0" r="1" fill="#343434" stroke="#343434" stroke-width="1.1"/><circle cx="10" cy="10" r="1" fill="#343434" stroke="#343434" stroke-width="1.1"/></pattern></defs><defs><pattern id="nmipm" patternUnits="userSpaceOnUse" width="10" height="10"><rect width="10" height="10" fill="white"/><circle cx="5" cy="5" r="1" fill="#343434" stroke="#343434" stroke-width="1.3"/><circle cx="0" cy="0" r="1" fill="#343434" stroke="#343434" stroke-width="1.3"/><circle cx="0" cy="10" r="1" fill="#343434" stroke="#343434" stroke-width="1.3"/><circle cx="10" cy="0" r="1" fill="#343434" stroke="#343434" stroke-width="1.3"/><circle cx="10" cy="10" r="1" fill="#343434" stroke="#343434" stroke-width="1.3"/></pattern></defs><defs><pattern id="lpopn" patternUnits="userSpaceOnUse" width="20" height="20"><rect width="20" height="20" fill="white"/><circle cx="10" cy="10" r="4" fill="grey" stroke="#343434" stroke-width="0"/><circle cx="0" cy="0" r="4" fill="grey" stroke="#343434" stroke-width="0"/><circle cx="0" cy="20" r="4" fill="grey" stroke="#343434" stroke-width="0"/><circle cx="20" cy="0" r="4" fill="grey" stroke="#343434" stroke-width="0"/><circle cx="20" cy="20" r="4" fill="grey" stroke="#343434" stroke-width="0"/></pattern></defs><defs><pattern id="yfnmi" patternUnits="userSpaceOnUse" width="20" height="20"><rect width="20" height="20" fill="white"/><path d="M 0,20 l 20,-20 M -5,5 l 10,-10
M 15,25 l 10,-10" stroke-width="1" shape-rendering="auto" stroke="#343434" stroke-linecap="square"/><path d="M 0,0 l 20,20 M -5,15 l 10,10
M 15,-5 l 10,10" stroke-width="1" shape-rendering="auto" stroke="#343434" stroke-linecap="square"/></pattern></defs><defs><pattern id="dodji" patternUnits="userSpaceOnUse" width="20" height="20"><rect width="20" height="20" fill="white"/><path d="M 5,15l5,-10l5,10" fill="transparent" stroke-width="2" shape-rendering="auto" stroke="#343434" stroke-linecap="square"/></pattern></defs><defs><pattern id="yoeet" patternUnits="userSpaceOnUse" width="20" height="20"><rect width="20" height="20" fill="white"/><path d="M 5,5l10,10M15,5l10,-10
M5,15l-10,10M15,25l10,-10
M-5,5l10,-10" fill="transparent" stroke-width="2" shape-rendering="auto" stroke="#343434" stroke-linecap="square"/></pattern></defs><defs><pattern id="eqhrj" patternUnits="userSpaceOnUse" width="20" height="20"><rect width="20" height="20" fill="white"/><path d="M 0,20 l 20,-20 M -5,5 l 10,-10
M 15,25 l 10,-10" stroke-width="0" shape-rendering="auto" stroke="#343434" stroke-linecap="square"/></pattern></defs><defs><pattern id="zyaxb" patternUnits="userSpaceOnUse" width="20" height="20"><rect width="20" height="20" fill="blue"/><path d="M 10, 0 l 0, 20" stroke-width="2" shape-rendering="auto" stroke="#343434" stroke-linecap="square"/></pattern></defs><defs><pattern id="mlhap" patternUnits="userSpaceOnUse" width="20" height="20"><rect width="20" height="20" fill="blue"/><path d="M 0,0 l 20,20 M -5,15 l 10,10
M 15,-5 l 10,10" stroke-width="2" shape-rendering="auto" stroke="#343434" stroke-linecap="square"/></pattern></defs><defs><pattern id="fdypq" patternUnits="userSpaceOnUse" width="20" height="20"><rect width="20" height="20" fill="blue"/><path d="M 0,20 l 20,-20 M -5,5 l 10,-10
M 15,25 l 10,-10" stroke-width="2" shape-rendering="auto" stroke="#343434" stroke-linecap="square"/></pattern></defs><defs><pattern id="hsmjo" patternUnits="userSpaceOnUse" width="10" height="10"><rect width="10" height="10" fill="blue"/><path d="M 5, 0 l 0, 10" stroke-width="2" shape-rendering="auto" stroke="#343434" stroke-linecap="square"/></pattern></defs><defs><pattern id="axknh" patternUnits="userSpaceOnUse" width="10" height="10"><rect width="10" height="10" fill="blue"/><path d="M 0,0 l 10,10 M -2.5,7.5 l 5,5
M 7.5,-2.5 l 5,5" stroke-width="2" shape-rendering="auto" stroke="#343434" stroke-linecap="square"/></pattern></defs><defs><pattern id="xbebn" patternUnits="userSpaceOnUse" width="10" height="10"><rect width="10" height="10" fill="blue"/><path d="M 0,10 l 10,-10 M -2.5,2.5 l 5,-5
M 7.5,12.5 l 5,-5" stroke-width="2" shape-rendering="auto" stroke="#343434" stroke-linecap="square"/></pattern></defs><defs><pattern id="uhhte" patternUnits="userSpaceOnUse" width="20" height="20"><rect width="20" height="20" fill="blue"/><path d="M 0 10 c 2.5 -5 , 7.5 -5 , 10 0
c 2.5 5 , 7.5 5 , 10 0 M -10 10
c 2.5 5 , 7.5 5 , 10 0 M 20 10
c 2.5 -5 , 7.5 -5 , 10 0" fill="transparent" stroke-width="2" shape-rendering="auto" stroke="#343434" stroke-linecap="square"/></pattern></defs><defs><pattern id="jomqo" patternUnits="userSpaceOnUse" width="20" height="20"><rect width="20" height="20" fill="blue"/><circle cx="10" cy="10" r="2" fill="#343434" stroke="#343434" stroke-width="0"/><circle cx="0" cy="0" r="2" fill="#343434" stroke="#343434" stroke-width="0"/><circle cx="0" cy="20" r="2" fill="#343434" stroke="#343434" stroke-width="0"/><circle cx="20" cy="0" r="2" fill="#343434" stroke="#343434" stroke-width="0"/><circle cx="20" cy="20" r="2" fill="#343434" stroke="#343434" stroke-width="0"/></pattern></defs><defs><pattern id="nscnq" patternUnits="userSpaceOnUse" width="10" height="10"><rect width="10" height="10" fill="blue"/><circle cx="5" cy="5" r="1" fill="#343434" stroke="#343434" stroke-width="1.1"/><circle cx="0" cy="0" r="1" fill="#343434" stroke="#343434" stroke-width="1.1"/><circle cx="0" cy="10" r="1" fill="#343434" stroke="#343434" stroke-width="1.1"/><circle cx="10" cy="0" r="1" fill="#343434" stroke="#343434" stroke-width="1.1"/><circle cx="10" cy="10" r="1" fill="#343434" stroke="#343434" stroke-width="1.1"/></pattern></defs><defs><pattern id="uhnax" patternUnits="userSpaceOnUse" width="10" height="10"><rect width="10" height="10" fill="blue"/><circle cx="5" cy="5" r="1" fill="#343434" stroke="#343434" stroke-width="1.1"/><circle cx="0" cy="0" r="1" fill="#343434" stroke="#343434" stroke-width="1.1"/><circle cx="0" cy="10" r="1" fill="#343434" stroke="#343434" stroke-width="1.1"/><circle cx="10" cy="0" r="1" fill="#343434" stroke="#343434" stroke-width="1.1"/><circle cx="10" cy="10" r="1" fill="#343434" stroke="#343434" stroke-width="1.1"/></pattern></defs><defs><pattern id="dtvjj" patternUnits="userSpaceOnUse" width="10" height="10"><rect width="10" height="10" fill="blue"/><circle cx="5" cy="5" r="1" fill="#343434" stroke="#343434" stroke-width="1.3"/><circle cx="0" cy="0" r="1" fill="#343434" stroke="#343434" stroke-width="1.3"/><circle cx="0" cy="10" r="1" fill="#343434" stroke="#343434" stroke-width="1.3"/><circle cx="10" cy="0" r="1" fill="#343434" stroke="#343434" stroke-width="1.3"/><circle cx="10" cy="10" r="1" fill="#343434" stroke="#343434" stroke-width="1.3"/></pattern></defs><defs><pattern id="xjqqc" patternUnits="userSpaceOnUse" width="20" height="20"><rect width="20" height="20" fill="blue"/><circle cx="10" cy="10" r="4" fill="grey" stroke="#343434" stroke-width="0"/><circle cx="0" cy="0" r="4" fill="grey" stroke="#343434" stroke-width="0"/><circle cx="0" cy="20" r="4" fill="grey" stroke="#343434" stroke-width="0"/><circle cx="20" cy="0" r="4" fill="grey" stroke="#343434" stroke-width="0"/><circle cx="20" cy="20" r="4" fill="grey" stroke="#343434" stroke-width="0"/></pattern></defs><defs><pattern id="wjxnw" patternUnits="userSpaceOnUse" width="20" height="20"><rect width="20" height="20" fill="blue"/><path d="M 0,20 l 20,-20 M -5,5 l 10,-10
M 15,25 l 10,-10" stroke-width="1" shape-rendering="auto" stroke="#343434" stroke-linecap="square"/><path d="M 0,0 l 20,20 M -5,15 l 10,10
M 15,-5 l 10,10" stroke-width="1" shape-rendering="auto" stroke="#343434" stroke-linecap="square"/></pattern></defs><defs><pattern id="beygs" patternUnits="userSpaceOnUse" width="20" height="20"><rect width="20" height="20" fill="blue"/><path d="M 5,15l5,-10l5,10" fill="transparent" stroke-width="2" shape-rendering="auto" stroke="#343434" stroke-linecap="square"/></pattern></defs><defs><pattern id="eifqt" patternUnits="userSpaceOnUse" width="20" height="20"><rect width="20" height="20" fill="blue"/><path d="M 5,5l10,10M15,5l10,-10
M5,15l-10,10M15,25l10,-10
M-5,5l10,-10" fill="transparent" stroke-width="2" shape-rendering="auto" stroke="#343434" stroke-linecap="square"/></pattern></defs><defs><pattern id="xprpy" patternUnits="userSpaceOnUse" width="20" height="20"><rect width="20" height="20" fill="blue"/><path d="M 0,20 l 20,-20 M -5,5 l 10,-10
M 15,25 l 10,-10" stroke-width="0" shape-rendering="auto" stroke="#343434" stroke-linecap="square"/></pattern></defs><defs><pattern id="ucscx" patternUnits="userSpaceOnUse" width="20" height="20"><rect width="20" height="20" fill="red"/><path d="M 10, 0 l 0, 20" stroke-width="2" shape-rendering="auto" stroke="#343434" stroke-linecap="square"/></pattern></defs><defs><pattern id="wxdyl" patternUnits="userSpaceOnUse" width="20" height="20"><rect width="20" height="20" fill="red"/><path d="M 0,0 l 20,20 M -5,15 l 10,10
M 15,-5 l 10,10" stroke-width="2" shape-rendering="auto" stroke="#343434" stroke-linecap="square"/></pattern></defs><defs><pattern id="gyqbc" patternUnits="userSpaceOnUse" width="20" height="20"><rect width="20" height="20" fill="red"/><path d="M 0,20 l 20,-20 M -5,5 l 10,-10
M 15,25 l 10,-10" stroke-width="2" shape-rendering="auto" stroke="#343434" stroke-linecap="square"/></pattern></defs><defs><pattern id="coocn" patternUnits="userSpaceOnUse" width="10" height="10"><rect width="10" height="10" fill="red"/><path d="M 5, 0 l 0, 10" stroke-width="2" shape-rendering="auto" stroke="#343434" stroke-linecap="square"/></pattern></defs><defs><pattern id="xhoun" patternUnits="userSpaceOnUse" width="10" height="10"><rect width="10" height="10" fill="red"/><path d="M 0,0 l 10,10 M -2.5,7.5 l 5,5
M 7.5,-2.5 l 5,5" stroke-width="2" shape-rendering="auto" stroke="#343434" stroke-linecap="square"/></pattern></defs><defs><pattern id="mfkka" patternUnits="userSpaceOnUse" width="10" height="10"><rect width="10" height="10" fill="red"/><path d="M 0,10 l 10,-10 M -2.5,2.5 l 5,-5
M 7.5,12.5 l 5,-5" stroke-width="2" shape-rendering="auto" stroke="#343434" stroke-linecap="square"/></pattern></defs><defs><pattern id="biwbj" patternUnits="userSpaceOnUse" width="20" height="20"><rect width="20" height="20" fill="red"/><path d="M 0 10 c 2.5 -5 , 7.5 -5 , 10 0
c 2.5 5 , 7.5 5 , 10 0 M -10 10
c 2.5 5 , 7.5 5 , 10 0 M 20 10
c 2.5 -5 , 7.5 -5 , 10 0" fill="transparent" stroke-width="2" shape-rendering="auto" stroke="#343434" stroke-linecap="square"/></pattern></defs><defs><pattern id="pozld" patternUnits="userSpaceOnUse" width="20" height="20"><rect width="20" height="20" fill="red"/><circle cx="10" cy="10" r="2" fill="#343434" stroke="#343434" stroke-width="0"/><circle cx="0" cy="0" r="2" fill="#343434" stroke="#343434" stroke-width="0"/><circle cx="0" cy="20" r="2" fill="#343434" stroke="#343434" stroke-width="0"/><circle cx="20" cy="0" r="2" fill="#343434" stroke="#343434" stroke-width="0"/><circle cx="20" cy="20" r="2" fill="#343434" stroke="#343434" stroke-width="0"/></pattern></defs><defs><pattern id="ojdej" patternUnits="userSpaceOnUse" width="10" height="10"><rect width="10" height="10" fill="red"/><circle cx="5" cy="5" r="1" fill="#343434" stroke="#343434" stroke-width="1.1"/><circle cx="0" cy="0" r="1" fill="#343434" stroke="#343434" stroke-width="1.1"/><circle cx="0" cy="10" r="1" fill="#343434" stroke="#343434" stroke-width="1.1"/><circle cx="10" cy="0" r="1" fill="#343434" stroke="#343434" stroke-width="1.1"/><circle cx="10" cy="10" r="1" fill="#343434" stroke="#343434" stroke-width="1.1"/></pattern></defs><defs><pattern id="pilyk" patternUnits="userSpaceOnUse" width="10" height="10"><rect width="10" height="10" fill="red"/><circle cx="5" cy="5" r="1" fill="#343434" stroke="#343434" stroke-width="1.1"/><circle cx="0" cy="0" r="1" fill="#343434" stroke="#343434" stroke-width="1.1"/><circle cx="0" cy="10" r="1" fill="#343434" stroke="#343434" stroke-width="1.1"/><circle cx="10" cy="0" r="1" fill="#343434" stroke="#343434" stroke-width="1.1"/><circle cx="10" cy="10" r="1" fill="#343434" stroke="#343434" stroke-width="1.1"/></pattern></defs><defs><pattern id="tluit" patternUnits="userSpaceOnUse" width="10" height="10"><rect width="10" height="10" fill="red"/><circle cx="5" cy="5" r="1" fill="#343434" stroke="#343434" stroke-width="1.3"/><circle cx="0" cy="0" r="1" fill="#343434" stroke="#343434" stroke-width="1.3"/><circle cx="0" cy="10" r="1" fill="#343434" stroke="#343434" stroke-width="1.3"/><circle cx="10" cy="0" r="1" fill="#343434" stroke="#343434" stroke-width="1.3"/><circle cx="10" cy="10" r="1" fill="#343434" stroke="#343434" stroke-width="1.3"/></pattern></defs><defs><pattern id="qqpoe" patternUnits="userSpaceOnUse" width="20" height="20"><rect width="20" height="20" fill="red"/><circle cx="10" cy="10" r="4" fill="grey" stroke="#343434" stroke-width="0"/><circle cx="0" cy="0" r="4" fill="grey" stroke="#343434" stroke-width="0"/><circle cx="0" cy="20" r="4" fill="grey" stroke="#343434" stroke-width="0"/><circle cx="20" cy="0" r="4" fill="grey" stroke="#343434" stroke-width="0"/><circle cx="20" cy="20" r="4" fill="grey" stroke="#343434" stroke-width="0"/></pattern></defs><defs><pattern id="fctew" patternUnits="userSpaceOnUse" width="20" height="20"><rect width="20" height="20" fill="red"/><path d="M 0,20 l 20,-20 M -5,5 l 10,-10
M 15,25 l 10,-10" stroke-width="1" shape-rendering="auto" stroke="#343434" stroke-linecap="square"/><path d="M 0,0 l 20,20 M -5,15 l 10,10
M 15,-5 l 10,10" stroke-width="1" shape-rendering="auto" stroke="#343434" stroke-linecap="square"/></pattern></defs><defs><pattern id="ronky" patternUnits="userSpaceOnUse" width="20" height="20"><rect width="20" height="20" fill="red"/><path d="M 5,15l5,-10l5,10" fill="transparent" stroke-width="2" shape-rendering="auto" stroke="#343434" stroke-linecap="square"/></pattern></defs><defs><pattern id="gkspv" patternUnits="userSpaceOnUse" width="20" height="20"><rect width="20" height="20" fill="red"/><path d="M 5,5l10,10M15,5l10,-10
M5,15l-10,10M15,25l10,-10
M-5,5l10,-10" fill="transparent" stroke-width="2" shape-rendering="auto" stroke="#343434" stroke-linecap="square"/></pattern></defs><defs><pattern id="mddwp" patternUnits="userSpaceOnUse" width="20" height="20"><rect width="20" height="20" fill="red"/><path d="M 0,20 l 20,-20 M -5,5 l 10,-10
M 15,25 l 10,-10" stroke-width="0" shape-rendering="auto" stroke="#343434" stroke-linecap="square"/></pattern></defs><defs><pattern id="jfeba" patternUnits="userSpaceOnUse" width="20" height="20"><rect width="20" height="20" fill="yellow"/><path d="M 10, 0 l 0, 20" stroke-width="2" shape-rendering="auto" stroke="#343434" stroke-linecap="square"/></pattern></defs><defs><pattern id="tdykx" patternUnits="userSpaceOnUse" width="20" height="20"><rect width="20" height="20" fill="yellow"/><path d="M 0,0 l 20,20 M -5,15 l 10,10
M 15,-5 l 10,10" stroke-width="2" shape-rendering="auto" stroke="#343434" stroke-linecap="square"/></pattern></defs><defs><pattern id="uppvc" patternUnits="userSpaceOnUse" width="20" height="20"><rect width="20" height="20" fill="yellow"/><path d="M 0,20 l 20,-20 M -5,5 l 10,-10
M 15,25 l 10,-10" stroke-width="2" shape-rendering="auto" stroke="#343434" stroke-linecap="square"/></pattern></defs><defs><pattern id="mohoo" patternUnits="userSpaceOnUse" width="10" height="10"><rect width="10" height="10" fill="yellow"/><path d="M 5, 0 l 0, 10" stroke-width="2" shape-rendering="auto" stroke="#343434" stroke-linecap="square"/></pattern></defs><defs><pattern id="zjrcq" patternUnits="userSpaceOnUse" width="10" height="10"><rect width="10" height="10" fill="yellow"/><path d="M 0,0 l 10,10 M -2.5,7.5 l 5,5
M 7.5,-2.5 l 5,5" stroke-width="2" shape-rendering="auto" stroke="#343434" stroke-linecap="square"/></pattern></defs><defs><pattern id="bkkzv" patternUnits="userSpaceOnUse" width="10" height="10"><rect width="10" height="10" fill="yellow"/><path d="M 0,10 l 10,-10 M -2.5,2.5 l 5,-5
M 7.5,12.5 l 5,-5" stroke-width="2" shape-rendering="auto" stroke="#343434" stroke-linecap="square"/></pattern></defs><defs><pattern id="zbquc" patternUnits="userSpaceOnUse" width="20" height="20"><rect width="20" height="20" fill="yellow"/><path d="M 0 10 c 2.5 -5 , 7.5 -5 , 10 0
c 2.5 5 , 7.5 5 , 10 0 M -10 10
c 2.5 5 , 7.5 5 , 10 0 M 20 10
c 2.5 -5 , 7.5 -5 , 10 0" fill="transparent" stroke-width="2" shape-rendering="auto" stroke="#343434" stroke-linecap="square"/></pattern></defs><defs><pattern id="vriho" patternUnits="userSpaceOnUse" width="20" height="20"><rect width="20" height="20" fill="yellow"/><circle cx="10" cy="10" r="2" fill="#343434" stroke="#343434" stroke-width="0"/><circle cx="0" cy="0" r="2" fill="#343434" stroke="#343434" stroke-width="0"/><circle cx="0" cy="20" r="2" fill="#343434" stroke="#343434" stroke-width="0"/><circle cx="20" cy="0" r="2" fill="#343434" stroke="#343434" stroke-width="0"/><circle cx="20" cy="20" r="2" fill="#343434" stroke="#343434" stroke-width="0"/></pattern></defs><defs><pattern id="tmvtl" patternUnits="userSpaceOnUse" width="10" height="10"><rect width="10" height="10" fill="yellow"/><circle cx="5" cy="5" r="1" fill="#343434" stroke="#343434" stroke-width="1.1"/><circle cx="0" cy="0" r="1" fill="#343434" stroke="#343434" stroke-width="1.1"/><circle cx="0" cy="10" r="1" fill="#343434" stroke="#343434" stroke-width="1.1"/><circle cx="10" cy="0" r="1" fill="#343434" stroke="#343434" stroke-width="1.1"/><circle cx="10" cy="10" r="1" fill="#343434" stroke="#343434" stroke-width="1.1"/></pattern></defs><defs><pattern id="uwhiu" patternUnits="userSpaceOnUse" width="10" height="10"><rect width="10" height="10" fill="yellow"/><circle cx="5" cy="5" r="1" fill="#343434" stroke="#343434" stroke-width="1.1"/><circle cx="0" cy="0" r="1" fill="#343434" stroke="#343434" stroke-width="1.1"/><circle cx="0" cy="10" r="1" fill="#343434" stroke="#343434" stroke-width="1.1"/><circle cx="10" cy="0" r="1" fill="#343434" stroke="#343434" stroke-width="1.1"/><circle cx="10" cy="10" r="1" fill="#343434" stroke="#343434" stroke-width="1.1"/></pattern></defs><defs><pattern id="hronc" patternUnits="userSpaceOnUse" width="10" height="10"><rect width="10" height="10" fill="yellow"/><circle cx="5" cy="5" r="1" fill="#343434" stroke="#343434" stroke-width="1.3"/><circle cx="0" cy="0" r="1" fill="#343434" stroke="#343434" stroke-width="1.3"/><circle cx="0" cy="10" r="1" fill="#343434" stroke="#343434" stroke-width="1.3"/><circle cx="10" cy="0" r="1" fill="#343434" stroke="#343434" stroke-width="1.3"/><circle cx="10" cy="10" r="1" fill="#343434" stroke="#343434" stroke-width="1.3"/></pattern></defs><defs><pattern id="homdd" patternUnits="userSpaceOnUse" width="20" height="20"><rect width="20" height="20" fill="yellow"/><circle cx="10" cy="10" r="4" fill="grey" stroke="#343434" stroke-width="0"/><circle cx="0" cy="0" r="4" fill="grey" stroke="#343434" stroke-width="0"/><circle cx="0" cy="20" r="4" fill="grey" stroke="#343434" stroke-width="0"/><circle cx="20" cy="0" r="4" fill="grey" stroke="#343434" stroke-width="0"/><circle cx="20" cy="20" r="4" fill="grey" stroke="#343434" stroke-width="0"/></pattern></defs><defs><pattern id="vnggv" patternUnits="userSpaceOnUse" width="20" height="20"><rect width="20" height="20" fill="yellow"/><path d="M 0,20 l 20,-20 M -5,5 l 10,-10
M 15,25 l 10,-10" stroke-width="1" shape-rendering="auto" stroke="#343434" stroke-linecap="square"/><path d="M 0,0 l 20,20 M -5,15 l 10,10
M 15,-5 l 10,10" stroke-width="1" shape-rendering="auto" stroke="#343434" stroke-linecap="square"/></pattern></defs><defs><pattern id="tidxe" patternUnits="userSpaceOnUse" width="20" height="20"><rect width="20" height="20" fill="yellow"/><path d="M 5,15l5,-10l5,10" fill="transparent" stroke-width="2" shape-rendering="auto" stroke="#343434" stroke-linecap="square"/></pattern></defs><defs><pattern id="wpbyx" patternUnits="userSpaceOnUse" width="20" height="20"><rect width="20" height="20" fill="yellow"/><path d="M 5,5l10,10M15,5l10,-10
M5,15l-10,10M15,25l10,-10
M-5,5l10,-10" fill="transparent" stroke-width="2" shape-rendering="auto" stroke="#343434" stroke-linecap="square"/></pattern></defs><defs><pattern id="yuwqb" patternUnits="userSpaceOnUse" width="20" height="20"><rect width="20" height="20" fill="yellow"/><path d="M 0,20 l 20,-20 M -5,5 l 10,-10
M 15,25 l 10,-10" stroke-width="0" shape-rendering="auto" stroke="#343434" stroke-linecap="square"/></pattern></defs><g id="frame-layer"><path d="M 40 40 L 1009.469964664311 40 L 1009.469964664311 702.0494699646644 L 40 702.0494699646644 L 40 40 z" fill="none" stroke="#000000" stroke-width="2.5px" stroke-opacity="1" id="svgContainer" class="notDeletable"/></g><g id="map-layer" width="1049.469964664311" height="742.0494699646644" transform="translate(-37.21591288819357,59.93122875650681)scale(1.672492799828127)"><g id="source-layer" class="rotable"/><g id="drawing-layer"><g id="polygons-layer"><circle cx="335.92798079630614" cy="183.6008720868003" class="link_1" data-link="1" fill="url(#zyaxb)" r="55.735634744624875"/><path class="link_6" fill="url(#zyaxb)" d="M221.81396272115379,143.60851687543885Z" data-link="6"/></g><g id="lines-layer"><path class="link_4" stroke="black" stroke-width="2" fill="none" d="M180.44727744421604,86.0305603316691" data-link="4"/><path class="inner link_4" stroke-width="0" fill="none" d="M180.44727744421604,86.0305603316691" data-link="4"/><path class="link_5" stroke="black" stroke-width="2" fill="none" d="M189.95044621528314,98.32876800789629L252.00047413068972,244.78921719041642" data-link="5"/><path class="inner link_5" stroke-width="0" fill="none" d="M189.95044621528314,98.32876800789629L252.00047413068972,244.78921719041642" data-link="5"/><path class="link_8" stroke="black" stroke-width="2" fill="none" d="M278.8329206072722,108.94995234102741" data-link="8"/><path class="inner link_8" stroke-width="0" fill="none" d="M278.8329206072722,108.94995234102741" data-link="8"/><path class="link_9" stroke="black" stroke-width="2" fill="none" d="M278.8329206072722,108.94995234102741" data-link="9"/><path class="inner link_9" stroke-width="0" fill="none" d="M278.8329206072722,108.94995234102741" data-link="9"/><path class="link_10" stroke="black" stroke-width="2" fill="none" d="M346.4730628265217,67.58326706408968" data-link="10"/><path class="inner link_10" stroke-width="0" fill="none" d="M346.4730628265217,67.58326706408968" data-link="10"/><path class="link_13" stroke="black" stroke-width="2" fill="none" d="M345.35504726445765,88.82561748359056" data-link="13"/><path class="inner link_13" stroke-width="0" fill="none" d="M345.35504726445765,88.82561748359056" data-link="13"/><path class="link_14" stroke="black" stroke-width="2" fill="none" d="M418.585249047266,217.39776293280195" data-link="14"/><path class="inner link_14" stroke-width="0" fill="none" d="M418.585249047266,217.39776293280195" data-link="14"/><path class="link_16" stroke="black" stroke-width="2" fill="none" d="M353.74016397993796,58.639106074054624L395.1068492568757,302.36718285756683" data-link="16"/><path class="inner link_16" stroke-width="0" fill="none" d="M353.74016397993796,58.639106074054624L395.1068492568757,302.36718285756683" data-link="16"/></g><g id="points-layer"/><g id="text-layer"/></g></g><g id="margin-layer" width="1049.469964664311" height="742.0494699646644"><path d="M 0 0 L 0 742.0494699646644 L 1049.469964664311 742.0494699646644 L 1049.469964664311 0 L 0 0 z M 40 40 L 1009.469964664311 40 L 1009.469964664311 702.0494699646644 L 40 702.0494699646644 L 40 40 z" style="opacity:1;fill:#ffffff;fill-opacity:1" id="svgWhiteBorder" class="notDeletable"/></g></svg>